<?xml version="1.0" standalone="no"?>
<!DOCTYPE svg PUBLIC "-//W3C//DTD SVG 1.1//EN" "http://www.w3.org/Graphics/SVG/1.1/DTD/svg11.dtd" >
<svg xmlns="http://www.w3.org/2000/svg">
<metadata>Generated by IcoMoon</metadata>
<defs>
<font id="icomoon" horiz-adv-x="1024">
<font-face units-per-em="1024" ascent="960" descent="-64" />
<missing-glyph horiz-adv-x="1024" />
<glyph unicode="&#x20;" horiz-adv-x="512" d="" />
<glyph unicode="&#xe900;" glyph-name="hex_filled" horiz-adv-x="886" d="M0 704.436l442.176 255.564 442.167-255.564v-511.155l-442.167-255.573-442.176 255.573v511.155z" />
<glyph unicode="&#xe901;" glyph-name="icon_cameras" horiz-adv-x="1052" d="M526.222-51.342c-4.466 0.014-8.875 1.138-12.8 3.271l-388.551 211.342c-8.718 4.651-14.18 13.724-14.222 23.609v426.667c0.043 9.884 5.504 18.958 14.222 23.609l389.404 213.333c8.263 4.309 18.162 4.039 26.169-0.711l387.698-213.333c8.676-4.636 14.137-13.625 14.222-23.467v-425.244c-0.043-9.884-5.504-18.958-14.222-23.609l-388.551-212.196c-4.096-2.233-8.704-3.356-13.369-3.271zM164.551 202.809l361.671-196.693 361.671 197.547v393.529l-360.818 199.111-362.524-199.111v-394.382zM25.173 652.089c-6.044 0.128-11.278 4.252-12.8 10.112s1.038 12.004 6.258 15.061l508.729 279.467 506.311-279.467c5.845-3.883 7.737-11.591 4.366-17.749s-10.894-8.704-17.308-5.86l-493.369 272.356-495.644-272.356c-2.020-1.038-4.267-1.579-6.542-1.564zM641.991 396.231c0-68.257-55.334-123.591-123.591-123.591s-123.591 55.334-123.591 123.591c0 68.257 55.334 123.591 123.591 123.591s123.591-55.334 123.591-123.591zM518.4 185.031c-116.636 0-211.2 94.564-211.2 211.2s94.564 211.2 211.2 211.2 211.2-94.564 211.2-211.2c-0.156-116.58-94.62-211.044-211.2-211.2zM518.4 580.693c-102.116 0-184.889-82.773-184.889-184.889s82.773-184.889 184.889-184.889 184.889 82.773 184.889 184.889c-0.085 102.059-82.83 184.747-184.889 184.747v0.142z" />
<glyph unicode="&#xe902;" glyph-name="websee_logo" horiz-adv-x="1426" d="M398.135 471.187l-68.504 218.758c-11.051 35.329-39.256 63.944-62.999 63.944h-212.353c-23.711 0-33.966-28.596-22.942-63.944l160.789-513.459c10.768-34.358 37.727-62.32 61.019-63.8 20.46 6.594 42.617 31.882 52.178 62.164 0.051 0.154 92.803 296.349 92.803 296.349zM836.841 752.211c-2.656 1.064-5.539 1.664-8.718 1.664h-263.372c-22.985 0-50.282-28.655-60.983-63.929l-155.643-513.207c-0.048-0.154-0.061-0.3-0.141-0.46-9.257-30.274-30.717-55.518-51.115-61.979 2.656-1.042 5.552-1.635 8.758-1.635h246.787c0.46 0 0.863 0.112 1.382 0.112l15.181 0.021c23.004 0 50.261 28.607 60.97 63.929l155.643 513.207c9.257 30.451 30.76 55.808 51.24 62.262v0 0zM1383.745 753.881h-208.201c-23.248 0-50.887-28.655-61.735-63.945l-157.606-513.179c-0.061-0.181-0.113-0.38-0.162-0.571-9.398-30.199-31.12-55.448-51.708-61.86 2.685-1.042 5.581-1.635 8.839-1.635h121.611c-0.553 0-1.143 0.096-1.69 0.141h153.744c23.248 0 50.887 28.607 61.735 63.945l157.606 513.179c10.841 35.272 0.781 63.929-22.432 63.929v0 0zM910.132 176.532l95.448 302.241-67.376 213.243c-9.323 29.598-30.78 54.465-51.594 61.86-20.816-7.394-42.262-32.082-51.594-61.701l-99.419-314.684 63.401-200.773c10.881-34.442 29.828-62.479 53.404-64.033-1.504 0.273 5.472 0.662 4.109 1.162 21.338 6.434 43.72 31.794 53.404 62.111 0.052 0.181 0.101 0.382 0.187 0.576v0 0z" />
<glyph unicode="&#xe903;" glyph-name="icon_cod" horiz-adv-x="1265" d="M531.334 672.903v-116.467l100.268-57.75 100.268 58.026v116.191l-99.991 58.441zM1246.613 126.3l-284.173 163.547v315.052l285.002 166.186c8.682 4.39 14.206 13.22 14.363 22.946s-5.091 18.724-13.632 23.39c-8.525 4.656-18.942 4.201-27.049-1.185l-93.066-54.144-46.526 27.7c-4.063 2.386-9.096 2.386-13.159 0l-83.921-48.752-39.603 23.124c-4.063 2.386-9.096 2.386-13.159 0l-147.76-86.832c-4.063-2.346-6.532-6.67-6.511-11.359v-171.165c-0.023-4.677 2.447-9.016 6.511-11.359l58.579-33.657v-53.866c-0.023-4.677 2.447-9.016 6.511-11.359l61.067-35.178v-74.64c0-9.373 5.012-18.048 13.159-22.71l297.193-171.165c12.548-7.224 28.569-2.92 35.794 9.628s2.92 28.569-9.628 35.794zM803.461 502.422v156.069l134.605 78.387 20.499-11.498-109.404-63.708c-4.063-2.346-6.532-6.67-6.511-11.359v-170.055l-39.186 22.157zM868.546 403.548v238.753l206.201 120.203 27.7-15.923-179.201-104.275c-8.049-4.677-13.002-13.263-13.021-22.572v-240.55l-41.689 24.368zM331.505 763.19c-4.241 2.663-9.609 2.663-13.85 0l-39.603-23.124-83.921 48.752c-4.241 2.663-9.609 2.663-13.85 0l-46.526-27.7-93.066 54.144c-8.089 5.386-18.513 5.841-27.049 1.185s-13.774-13.672-13.632-23.39c0.157-9.726 5.681-18.559 14.363-22.946l285.002-166.186v-315.052l-282.791-162.577c-11.482-7.642-15.073-22.879-8.187-34.825 6.867-11.955 21.841-16.515 34.215-10.457l297.193 171.165c8.147 4.669 13.159 13.337 13.159 22.71v74.64l61.067 35.178c4.063 2.346 6.532 6.67 6.511 11.359v53.866l58.717 33.657c4.063 2.346 6.532 6.67 6.511 11.359v171.026c0.023 4.677-2.447 9.016-6.511 11.359l-147.76 85.865zM394.515 403.133l-41.551-23.953v240.826c-0.019 9.311-4.972 17.895-13.021 22.572l-179.201 103.999 27.7 15.923 206.063-120.203v-239.168zM459.599 502.005l-38.909-22.433v170.471c0.023 4.677-2.447 9.016-6.511 11.359l-109.542 63.984 20.223 11.777 134.605-78.387v-156.346l0.138-0.415z" />
<glyph unicode="&#xe904;" glyph-name="icon_led" horiz-adv-x="837" d="M418.966 931.902c3.159-0.037 6.194 1.211 8.429 3.434 2.235 2.235 3.472 5.27 3.434 8.429v5.869c-0.624 6.044-5.719 10.652-11.801 10.652s-11.177-4.596-11.801-10.652v-5.869c-0.037-3.134 1.186-6.156 3.397-8.379s5.207-3.484 8.342-3.484zM418.966 860.347c3.159-0.037 6.194 1.211 8.429 3.434 2.235 2.235 3.472 5.27 3.434 8.429v14.236c0.462 4.508-1.673 8.879-5.52 11.276s-8.716 2.398-12.563 0c-3.846-2.398-5.982-6.781-5.52-11.276v-14.361c0-3.109 1.236-6.094 3.434-8.304 2.198-2.198 5.182-3.434 8.304-3.434zM418.966 797.034c3.109-0.037 6.107 1.174 8.342 3.347 2.223 2.173 3.497 5.145 3.522 8.267v6.119c0.462 4.508-1.673 8.879-5.52 11.276s-8.716 2.398-12.563 0c-3.846-2.398-5.982-6.781-5.52-11.276v-6.119c0.062-6.431 5.307-11.614 11.739-11.614zM820.074 647.18h-5.869c-6.044-0.624-10.652-5.719-10.652-11.801s4.596-11.177 10.652-11.801h5.869c6.044 0.624 10.652 5.719 10.652 11.801s-4.596 11.177-10.652 11.801zM756.886 647.18h-14.361c-6.044-0.624-10.652-5.719-10.652-11.801s4.596-11.177 10.652-11.801h14.361c4.508-0.462 8.879 1.673 11.276 5.52s2.398 8.716 0 12.563c-2.398 3.846-6.781 5.982-11.276 5.52zM685.206 647.18h-5.869c-6.044-0.624-10.652-5.719-10.652-11.801s4.596-11.177 10.652-11.801h5.869c6.044 0.624 10.652 5.719 10.652 11.801s-4.596 11.177-10.652 11.801zM681.584 855.602l-4.121-4.121c-4.071-4.708-3.809-11.751 0.587-16.147s11.451-4.658 16.147-0.587l4.121 4.121c3.359 2.91 4.82 7.443 3.771 11.764s-4.421 7.692-8.741 8.741c-4.321 1.049-8.854-0.412-11.764-3.771zM635.13 780.675c3.147 0 6.156 1.261 8.367 3.497l10.115 10.115c3.559 2.86 5.157 7.493 4.133 11.926-1.036 4.446-4.508 7.892-8.966 8.891-4.446 0.999-9.079-0.637-11.901-4.221l-10.115-10.115c-3.284-3.397-4.233-8.429-2.423-12.8 1.823-4.371 6.057-7.243 10.789-7.305zM590.423 735.969c3.147 0 6.156 1.261 8.367 3.497l4.121 4.121c3.359 2.91 4.82 7.443 3.771 11.764s-4.421 7.692-8.741 8.741c-4.321 1.049-8.854-0.412-11.764-3.771l-4.121-4.121c-3.372-3.397-4.383-8.479-2.548-12.9 1.823-4.421 6.132-7.318 10.914-7.33zM239.266 739.465c4.708-4.071 11.751-3.809 16.147 0.587s4.658 11.451 0.587 16.147l-4.121 4.121c-4.708 4.071-11.751 3.809-16.147-0.587s-4.658-11.451-0.587-16.147l4.121-4.121zM194.685 783.672c4.708-4.071 11.751-3.809 16.147 0.587s4.658 11.451 0.587 16.147l-10.115 10.115c-2.985 2.985-7.343 4.158-11.426 3.060s-7.268-4.283-8.367-8.367c-1.099-4.084 0.075-8.442 3.060-11.426l10.115-10.115zM143.984 834.747c4.62-4.62 12.113-4.62 16.734 0s4.62 12.113 0 16.734l-4.121 4.121c-4.62 4.62-12.113 4.62-16.734 0s-4.62-12.113 0-16.734l4.121-4.121zM154.1 634.818h-5.869c-6.044-0.624-10.652-5.719-10.652-11.801s4.596-11.177 10.652-11.801h5.869c6.044 0.624 10.652 5.719 10.652 11.801s-4.596 11.177-10.652 11.801zM90.911 634.818h-14.361c-4.508 0.462-8.879-1.673-11.276-5.52s-2.398-8.716 0-12.563c2.398-3.846 6.781-5.982 11.276-5.52h14.361c6.044 0.624 10.652 5.719 10.652 11.801s-4.596 11.177-10.652 11.801zM19.231 634.818h-5.869c-4.508 0.462-8.879-1.673-11.276-5.52s-2.398-8.716 0-12.563c2.398-3.846 6.781-5.982 11.276-5.52h5.869c6.044 0.624 10.652 5.719 10.652 11.801s-4.596 11.177-10.652 11.801zM660.605-19.793l-131.247 75.926v128.125h74.927c13.037 0 23.602 10.565 23.602 23.602v97.405c0 13.037-10.565 23.602-23.602 23.602h-11.739v320.187l-173.081 101.151-174.080-101.151v-319.813h-11.364c-13.037 0-23.602-10.565-23.602-23.602v-97.405c-0.1-6.319 2.348-12.425 6.781-16.933s10.502-7.043 16.821-7.043h74.927v-128.5l-131.247-75.926c-10.702-6.781-14.149-20.792-7.805-31.756 6.331-10.964 20.193-14.973 31.407-9.079l142.86 82.919c7.293 4.233 11.764 12.051 11.739 20.48v141.861h126.252v-142.111c-0.025-8.429 4.446-16.247 11.739-20.48l142.985-82.42c11.314-6.556 25.787-2.697 32.343 8.617s2.697 25.787-8.617 32.343zM292.589 621.955l126.501 73.553 125.877-73.553v-292.714h-28.222v160.219c-0.937 5.058-4.72 9.104-9.703 10.39s-10.252-0.425-13.524-4.396l-67.684-114.014c-2.223-3.634-2.298-8.192-0.2-11.901s6.044-5.994 10.315-5.957h57.194v-34.466h-148.73v34.466h24.976c4.146-0.012 7.992 2.173 10.115 5.744l67.684 114.014c2.223 3.634 2.298 8.192 0.2 11.901s-6.044 5.994-10.315 5.957h-104.398c-6.419-0.312-11.551-5.445-11.863-11.863v-160.094h-27.723l-0.5 292.714zM257.623 231.836v49.951h322.685v-49.951h-322.685z" />
<glyph unicode="&#xe905;" glyph-name="icon_multimedia" horiz-adv-x="1483" d="M927.448 576.758v65.635h30.376v-26.201c-0.040-3.527 1.352-6.91 3.831-9.405 2.495-2.495 5.878-3.871 9.405-3.831h216.551c3.527-0.040 6.91 1.352 9.405 3.831 2.495 2.495 3.871 5.878 3.831 9.405v103.677c0.040 3.527-1.352 6.91-3.831 9.405-2.495 2.495-5.878 3.871-9.405 3.831h-216.551c-3.527 0.040-6.91-1.352-9.405-3.831-2.495-2.495-3.871-5.878-3.831-9.405v-25.502h-30.376v64.799c-0.016 9.366-5.003 18.003-13.101 22.714l-157.606 92.112c-8.182 4.751-18.299 4.751-26.476 0l-158.447-92.112c-8.094-4.711-13.084-13.348-13.101-22.714v-64.799h-27.873v25.502c0.040 3.527-1.352 6.91-3.831 9.405-2.495 2.495-5.878 3.871-9.405 3.831h-215.996c-3.527 0.040-6.91-1.352-9.405-3.831-2.495-2.495-3.871-5.878-3.831-9.405v-103.677c-0.040-3.527 1.352-6.91 3.831-9.405 2.495-2.495 5.878-3.871 9.405-3.831h216.551c3.527-0.040 6.91 1.352 9.405 3.831 2.495 2.495 3.871 5.878 3.831 9.405v25.502h27.873v-65.91c0-9.438 5.047-18.155 13.236-22.852l157.326-90.025c8.15-4.711 18.187-4.711 26.337 0l158.022 91.416c8.054 4.624 13.084 13.14 13.236 22.434zM984.164 707.331h190.214v-77.204h-190.078v77.34l-0.136-0.136zM504.93 630.136h-190.078v77.34h190.078v-77.34zM874.77 592.090l-130.989-76.364-131.685 75.805v153.288l132.107 76.779 131.406-76.779v-153.288l-0.838 0.56zM734.031 766.836l-73.856-42.781c-4.084-2.353-6.574-6.718-6.55-11.429v-85.001c-0.027-4.711 2.463-9.069 6.55-11.429l73.156-41.805c4.055-2.344 9.046-2.344 13.101 0l73.156 41.805c4.084 2.353 6.574 6.718 6.55 11.429v84.866c-0.128 4.671-2.591 8.957-6.55 11.429l-73.021 42.645c-3.903 2.080-8.558 2.176-12.541 0.28zM800.501 705.244v-69.678l-60.063-34.697-60.063 34.559v69.678l60.2 34.974 59.92-34.839zM188.606 338.469l-106.884-62.152c-6.27-3.847-8.238-12.053-4.391-18.323s12.053-8.238 18.323-4.391l100.334 58.387 98.942-58.113c4.055-2.495 9.142-2.623 13.325-0.36 4.183 2.271 6.842 6.606 6.966 11.357s-2.299 9.222-6.355 11.717l-106.468 62.152c-4.319 2.353-9.573 2.245-13.796-0.28zM308.31 200.929l-106.468 62.152c-4.302 2.495-9.629 2.495-13.932 0l-106.884-62.152c-6.27-3.847-8.238-12.053-4.391-18.323s12.053-8.238 18.323-4.391l100.334 58.387 99.773-58.387c6.142-2.664 13.325-0.304 16.708 5.479 3.375 5.799 1.896 13.197-3.471 17.235zM366.279 335.822l-157.606 92.112c-8.182 4.751-18.299 4.751-26.476 0l-158.447-92.112c-8.094-4.711-13.084-13.348-13.101-22.714v-183.528c0-9.438 5.047-18.155 13.236-22.852l158.022-91c8.15-4.711 18.187-4.711 26.337 0l158.022 91.416c8.14 4.727 13.124 13.444 13.101 22.852v183.111c-0.016 9.366-5.003 18.003-13.101 22.714zM326.562 145.191l-131.685-76.228-131.685 75.805v153.288l132.107 76.779 131.406-76.779v-153.288l-0.136 0.416zM1463.95 335.959l-157.606 92.112c-8.182 4.751-18.299 4.751-26.476 0l-158.447-92.112c-8.094-4.711-13.084-13.348-13.101-22.714v-183.528c0-9.438 5.047-18.155 13.236-22.852l158.022-91c8.15-4.711 18.187-4.711 26.337 0l158.022 91.416c8.14 4.727 13.124 13.444 13.101 22.852v183.111c-0.016 9.366-5.003 18.003-13.101 22.714zM1424.376 145.328l-131.685-76.228-131.685 75.805v153.288l131.965 76.779 131.406-76.779v-152.872zM989.043 515.166c-3.807-6.046-2.423-13.988 3.207-18.395l10.309-7.246c3.831-3.151 9.114-3.871 13.668-1.896s7.606 6.326 7.926 11.285c0.32 4.949-2.143 9.669-6.409 12.221l-10.309 7.246c-6.046 3.807-13.988 2.423-18.395-3.207zM1124.631 420.127c3.807 6.046 2.423 13.988-3.207 18.395l-10.309 7.246c-3.831 3.151-9.114 3.871-13.668 1.896s-7.606-6.326-7.926-11.285c-0.32-4.949 2.143-9.669 6.409-12.221l10.173-7.246c2.871-2.047 6.455-2.855 9.933-2.255s6.574 2.568 8.598 5.463zM955.596 554.741c-3.831 3.151-9.114 3.871-13.668 1.896s-7.606-6.326-7.926-11.285c-0.32-4.949 2.143-9.669 6.409-12.221l10.309-7.246c3.831-3.151 9.114-3.871 13.668-1.896s7.606 6.326 7.926 11.285c0.32 4.949-2.143 9.669-6.409 12.221l-10.309 7.246zM1061.92 450.785c5.703 0.096 10.701 3.831 12.405 9.27 1.711 5.436-0.264 11.357-4.879 14.7l-10.309 7.246c-3.863 2.72-8.878 3.164-13.157 1.167-4.279-1.975-7.174-6.102-7.598-10.797s1.704-9.27 5.558-11.973l10.309-7.246c2.245-1.576 4.919-2.4 7.662-2.367zM1144.418 406.195c-3.807-6.046-2.423-13.988 3.207-18.395l10.309-7.246c5.95-3.567 13.645-1.92 17.627 3.751s2.927 13.46-2.439 17.851l-10.309 7.246c-6.046 3.807-13.988 2.423-18.395-3.207zM489.742 241.199h-12.956c-6.742-0.696-11.885-6.382-11.885-13.17s5.126-12.468 11.885-13.17h12.956c5.031-0.514 9.91 1.866 12.58 6.158s2.677 9.725 0 14.020c-2.677 4.295-7.566 6.679-12.58 6.158zM424.663 241.199h-12.956c-5.031 0.514-9.91-1.866-12.58-6.158s-2.677-9.725 0-14.020c2.677-4.295 7.566-6.679 12.58-6.158h12.956c5.031-0.514 9.91 1.866 12.58 6.158s2.677 9.725 0 14.020c-2.677 4.295-7.566 6.679-12.58 6.158zM1075.859 241.199h-12.956c-6.742-0.696-11.885-6.382-11.885-13.17s5.126-12.468 11.885-13.17h12.956c6.742 0.696 11.885 6.382 11.885 13.17s-5.126 12.468-11.885 13.17zM554.957 241.199h-13.101c-5.031 0.514-9.91-1.866-12.58-6.158s-2.677-9.725 0-14.020c2.677-4.295 7.566-6.679 12.58-6.158h12.956c6.758 0.656 11.917 6.31 11.957 13.101s-5.070 12.501-11.818 13.236zM945.702 241.199h-12.956c-6.742-0.696-11.885-6.382-11.885-13.17s5.126-12.468 11.885-13.17h12.956c6.742 0.696 11.885 6.382 11.885 13.17s-5.126 12.468-11.885 13.17zM880.488 241.199h-12.956c-6.742-0.696-11.885-6.382-11.885-13.17s5.126-12.468 11.885-13.17h12.956c6.742 0.696 11.885 6.382 11.885 13.17s-5.126 12.468-11.885 13.17zM620.036 241.199h-12.956c-6.742-0.696-11.885-6.382-11.885-13.17s5.126-12.468 11.885-13.17h12.956c6.742 0.696 11.885 6.382 11.885 13.17s-5.126 12.468-11.885 13.17zM815.409 241.199h-12.956c-5.031 0.514-9.91-1.866-12.58-6.158s-2.677-9.725 0-14.020c2.677-4.295 7.566-6.679 12.58-6.158h12.956c6.742 0.696 11.885 6.382 11.885 13.17s-5.126 12.468-11.885 13.17zM1010.781 241.199h-12.956c-5.031 0.514-9.91-1.866-12.58-6.158s-2.677-9.725 0-14.020c2.677-4.295 7.566-6.679 12.58-6.158h12.956c5.031-0.514 9.91 1.866 12.58 6.158s2.677 9.725 0 14.020c-2.677 4.295-7.566 6.679-12.58 6.158zM750.33 241.199h-13.101c-5.031 0.514-9.91-1.866-12.58-6.158s-2.677-9.725 0-14.020c2.677-4.295 7.566-6.679 12.58-6.158h12.956c6.758 0.656 11.917 6.31 11.957 13.101s-5.070 12.501-11.818 13.236zM685.115 241.199h-12.956c-5.031 0.514-9.91-1.866-12.58-6.158s-2.677-9.725 0-14.020c2.677-4.295 7.566-6.679 12.58-6.158h12.956c5.031-0.514 9.91 1.866 12.58 6.158s2.677 9.725 0 14.020c-2.677 4.295-7.566 6.679-12.58 6.158zM485.287 488.694l10.173 7.246c5.199 4.462 6.135 12.165 2.143 17.739s-11.565 7.19-17.475 3.719l-10.173-7.246c-5.199-4.462-6.135-12.165-2.143-17.739s11.565-7.19 17.475-3.719zM546.6 532.586c5.199 4.462 6.135 12.165 2.143 17.739s-11.565 7.19-17.475 3.719l-10.453-7.526c-5.199-4.462-6.135-12.165-2.143-17.739s11.565-7.19 17.475-3.719l10.453 7.526zM396.519 441.314c-4.447 5.575-12.389 6.896-18.395 3.063l-10.173-7.246c-5.199-4.462-6.135-12.165-2.143-17.739s11.565-7.19 17.475-3.719l10.173 7.246c5.575 4.447 6.896 12.389 3.063 18.395zM429.127 480.887l-10.173-7.246c-3.831-2.731-5.911-7.318-5.463-11.997 0.46-4.679 3.375-8.782 7.662-10.734s9.293-1.464 13.124 1.271l10.173 7.246c3.831 2.731 5.911 7.318 5.463 11.997-0.46 4.679-3.375 8.782-7.662 10.734s-9.293 1.464-13.124-1.271zM332.136 379.298l10.173 7.246c4.319 2.535 6.842 7.302 6.494 12.305-0.336 5.003-3.471 9.382-8.086 11.317-4.624 1.935-9.933 1.104-13.74-2.159l-10.173-7.246c-5.199-4.462-6.135-12.165-2.143-17.739s11.565-7.19 17.475-3.719zM1252.558 162.187l116.639 65.775-116.639 65.91zM228.179 148.814c0-18.395-14.908-33.303-33.303-33.303s-33.303 14.908-33.303 33.303c0 18.395 14.908 33.303 33.303 33.303s33.303-14.908 33.303-33.303z" />
<glyph unicode="&#xe906;" glyph-name="icon_project" horiz-adv-x="956" d="M863.915 583.851l-86.585-50.29v-100.124l86.357-49.721 86.357 49.948v99.897l-86.13 50.29zM907.378 458.695l-43.691-25.259-43.577 24.462v50.859l43.804 25.486 43.577-25.486v-50.859l-0.114 0.796zM178.29 538.795l-86.13 50.404-86.585-50.29v-100.124l86.357-49.721 86.357 49.948v99.783zM135.623 463.474l-43.691-25.259-43.691 25.145v51.428l43.804 25.486 43.577-25.486v-51.314zM185.685 709.348c7.225 0.046 14.302 2.048 20.48 5.803l2.503-2.503c4.176-4.176 10.957-4.176 15.132 0s4.176 10.957 0 15.132l-2.844 3.186c3.174 5.791 4.858 12.288 4.892 18.887-0.193 22.141-18.25 39.947-40.391 39.822s-39.993-18.136-39.936-40.277c0.057-22.141 18.022-40.050 40.164-40.050zM815.445 749.511c0 22.209-18.011 40.22-40.22 40.22s-40.22-18.011-40.22-40.22c0.046-6.258 1.57-12.413 4.437-17.977l-3.755-3.755c-4.176-4.176-4.176-10.957 0-15.132s10.957-4.176 15.132 0l3.072 3.072c12.334-7.851 27.967-8.351 40.778-1.32s20.776 20.491 20.776 35.112zM479.687 722.66c-5.905 0-10.695-4.79-10.695-10.695v-9.557c0-5.905 4.79-10.695 10.695-10.695s10.695 4.79 10.695 10.695v9.557c0 5.905-4.79 10.695-10.695 10.695zM468.992 759.637v-9.557c0-5.905 4.79-10.695 10.695-10.695s10.695 4.79 10.695 10.695v9.557c-0.011 1.707-0.444 3.391-1.252 4.892l75.776 43.804v99.783l-86.244 50.404-86.585-50.29v-100.124l77.596-44.715c-0.455-1.195-0.683-2.469-0.683-3.755zM434.859 883.655l43.804 25.486 43.577-25.486v-50.29l-43.691-25.259-43.691 25.145v50.404zM673.906 483.726c0-5.905 4.79-10.695 10.695-10.695h10.809c5.905 0 10.695 4.79 10.695 10.695s-4.79 10.695-10.695 10.695h-10.809c-5.905 0-10.695-4.79-10.695-10.695zM749.34 494.421h-10.809c-5.905 0-10.695-4.79-10.695-10.695s4.79-10.695 10.695-10.695h10.809c5.905 0 10.695 4.79 10.695 10.695s-4.79 10.695-10.695 10.695zM676.068 642.56c2.81 0 5.507 1.104 7.509 3.072l6.713 6.713c2.708 2.708 3.755 6.645 2.765 10.331-0.99 3.698-3.868 6.576-7.566 7.566s-7.634-0.068-10.331-2.765l-6.713-6.713c-3.026-3.072-3.914-7.657-2.253-11.639s5.564-6.565 9.876-6.565zM708.608 700.928l-6.713-6.713c-2.708-2.708-3.755-6.645-2.765-10.331 0.99-3.698 3.868-6.576 7.566-7.566s7.634 0.068 10.331 2.765l6.713 6.713c4.176 4.176 4.176 10.957 0 15.132s-10.957 4.176-15.132 0zM642.617 609.109c2.81 0 5.507 1.104 7.509 3.072l6.713 6.713c2.708 2.708 3.755 6.645 2.765 10.331-0.99 3.698-3.868 6.576-7.566 7.566s-7.634-0.068-10.331-2.765l-6.713-6.713c-3.026-3.072-3.914-7.657-2.253-11.639s5.564-6.565 9.876-6.565zM242.233 679.196c2.708-2.708 6.645-3.755 10.331-2.765 3.698 0.99 6.576 3.868 7.566 7.566s-0.068 7.634-2.765 10.331l-7.054 6.599c-4.278 4.085-11.048 3.937-15.132-0.341s-3.937-11.048 0.341-15.132l6.713-6.258zM290.816 660.764l-6.372 6.713c-4.176 4.176-10.957 4.176-15.132 0s-4.176-10.957 0-15.132l6.713-6.713c4.289-3.118 10.217-2.606 13.926 1.183s4.073 9.728 0.865 13.949zM309.134 612.295c4.176-4.176 10.957-4.176 15.132 0s4.176 10.957 0 15.132l-6.713 6.713c-4.176 4.176-10.957 4.176-15.132 0s-4.176-10.957 0-15.132l6.713-6.713zM242.916 212.708c4.153 4.244 4.073 11.036-0.171 15.189s-11.036 4.073-15.189-0.171l-2.958-2.958c-5.791 3.174-12.288 4.858-18.887 4.892-18.512 0.307-34.896-11.935-39.822-29.787-4.938-17.84 2.822-36.773 18.853-46.012 16.043-9.25 36.306-6.485 49.277 6.724s15.371 33.519 5.825 49.391l3.072 2.731zM270.108 494.421h-10.809c-5.905 0-10.695-4.79-10.695-10.695s4.79-10.695 10.695-10.695h10.809c5.905 0 10.695 4.79 10.695 10.695s-4.79 10.695-10.695 10.695zM216.178 494.421h-10.809c-5.905 0-10.695-4.79-10.695-10.695s4.79-10.695 10.695-10.695h10.809c5.905 0 10.695 4.79 10.695 10.695s-4.79 10.695-10.695 10.695zM415.972 355.499l2.844-2.162v8.761l-74.98 43.122v155.876l134.030 78.165 133.689-78.165v-155.534l-22.756-12.971 3.186-3.755c19.365 8.761 41.95 6.36 59.051-6.258 1.877 3.254 2.856 6.94 2.844 10.695v180.11c0.011 7.589-4.016 14.62-10.581 18.432l-154.965 91.022c-6.645 3.868-14.859 3.868-21.504 0l-155.762-91.022c-6.542-3.834-10.57-10.843-10.581-18.432v-180.452c-0.011-7.646 4.073-14.723 10.695-18.546l37.547-21.618c19.718 14.655 46.399 15.735 67.243 2.731zM261.689 261.291l-6.713-6.713c-2.708-2.708-3.755-6.645-2.765-10.331 0.99-3.698 3.868-6.576 7.566-7.566s7.634 0.068 10.331 2.765l6.713 6.713c4.176 4.176 4.176 10.957 0 15.132s-10.957 4.176-15.132 0zM294.798 294.741l-6.713-6.713c-4.176-4.176-4.176-10.957 0-15.132s10.957-4.176 15.132 0l6.713 6.713c4.176 4.176 4.176 10.957 0 15.132s-10.957 4.176-15.132 0zM321.536 321.365c-2.503-2.537-3.584-6.155-2.879-9.648s3.106-6.406 6.406-7.76c-0.057 8.943 1.934 17.772 5.803 25.828-0.956-0.432-1.832-1.013-2.617-1.707l-6.713-6.713zM679.822-16.555h-215.381c-7.999 0.58-15.644-3.345-19.82-10.194-4.176-6.838-4.176-15.44 0-22.289 4.176-6.838 11.822-10.775 19.82-10.194h215.381c11.184 0.819 19.831 10.126 19.831 21.333s-8.647 20.514-19.831 21.333zM712.021 306.802c0 15.269-12.379 27.648-27.648 27.648s-27.648-12.379-27.648-27.648v-35.499l-13.881 2.731v60.416c0 15.303-12.402 27.705-27.705 27.705s-27.705-12.402-27.705-27.705v-49.493l-13.881 2.731v62.464c0 15.303-12.402 27.705-27.705 27.705s-27.705-12.402-27.705-27.705v-51.541l-13.881 2.731v168.391c0 15.269-12.379 27.648-27.648 27.648s-27.648-12.379-27.648-27.648v-261.689c-2.276-4.244-5.461-7.942-9.33-10.809l-2.503-1.934-27.534 115.712c-1.149 10.615-8.294 19.627-18.375 23.142s-21.288 0.922-28.786-6.679c-7.498-7.6-9.956-18.83-6.315-28.865l36.295-153.145c0.478-1.923 1.172-3.8 2.048-5.575 9.444-30.265 39.595-120.832 62.009-126.635l230.741 0.569s39.026 100.352 24.917 246.784v46.535l-0.114-0.341z" />
<glyph unicode="&#xe907;" glyph-name="icon_sks" horiz-adv-x="819" d="M796.126 353.792c12.37 7.127 16.616 22.924 9.489 35.294s-22.924 16.616-35.294 9.489l-162.202-93.389c0.505 4.929-1.83 9.708-6.035 12.329s-9.53 2.621-13.735 0c-4.205-2.621-6.54-7.414-6.035-12.329v-2.594l-8.192 4.096-53.931-31.13 2.731-0.956 59.392-29.491v-87.791l-133.939 77.414-15.565-9.148-36.864-21.026h1.365l184.32-106.633v-86.699l-259.413 151.552-14.746-8.465-36.864-21.299 2.458-1.365 303.514-177.493c1.72-0.983 3.564-1.761 5.461-2.321 0.928-6.567 6.704-11.36 13.326-11.032 6.622 0.314 11.919 5.639 12.206 12.261v3.823l182.955 105.404c12.37 7.127 16.616 22.924 9.489 35.294s-22.924 16.616-35.294 9.489l-157.15-90.522v81.101l188.006 108.271c8.001 4.615 12.93 13.135 12.943 22.364s-4.915 17.763-12.902 22.391c-7.987 4.628-17.845 4.628-25.846 0.027l-161.655-93.389v88.61l188.006 107.861zM554.871 375.774v202.752l25.122 13.653c0-7.086 5.748-12.834 12.834-12.834s12.834 5.748 12.834 12.834v4.779l166.844-97.485c12.247-6.69 27.593-2.444 34.639 9.598 7.059 12.042 3.263 27.498-8.561 34.912l-187.597 109.227c-1.693 0.928-3.468 1.652-5.325 2.185v81.92l162.065-94.754c12.247-6.69 27.593-2.444 34.639 9.598 7.059 12.042 3.263 27.498-8.561 34.912l-187.597 109.227v85.743l161.655-94.481c12.247-6.69 27.593-2.444 34.639 9.598 7.059 12.042 3.263 27.498-8.561 34.912l-187.597 109.227v2.185c0.505 4.929-1.83 9.708-6.035 12.329s-9.53 2.621-13.735 0c-4.205-2.621-6.54-7.414-6.035-12.329v-2.321l-312.388-181.316c-1.734-1.038-3.331-2.28-4.779-3.686-1.297-1.379-2.444-2.881-3.413-4.506l-0.819-1.502-1.775-4.233v-1.638c-0.519-2.007-0.792-4.069-0.819-6.144v-201.933l-25.668-12.698v2.458c-0.683 6.608-6.253 11.646-12.902 11.646s-12.22-5.024-12.902-11.646l-162.202 93.389c-8.001 4.615-17.845 4.601-25.846-0.027-7.987-4.628-12.916-13.162-12.902-22.391s4.943-17.763 12.943-22.364l10.24-7.646 176.265-101.581v-88.61l-162.202 93.389c-4.164 2.335-8.888 3.468-13.653 3.277h-1.365c-11.196-1.024-20.439-9.189-22.842-20.18s2.58-22.269 12.329-27.88l2.867-1.638 1.365-0.819 183.774-105.813v-81.101l-157.15 90.658c-12.37 7.127-28.167 2.881-35.294-9.489s-2.881-28.167 9.489-35.294l7.782-4.506 1.911-1.092 173.261-99.806v-3.823c0.287-6.622 5.584-11.947 12.206-12.261s12.411 4.465 13.326 11.032c1.898 0.56 3.741 1.338 5.461 2.321l303.514 177.493c10.131 3.905 16.725 13.722 16.521 24.576zM289.041 495.241c10.65 3.386 17.872 13.271 17.886 24.439v203.162l9.284 5.461 263.646 155.511v-86.016l-188.143-109.227c-1.734-1.038-3.331-2.28-4.779-3.686-1.079-1.229-2.034-2.553-2.867-3.959l-0.819-1.502-1.775-4.233v-1.638c-0.519-2.007-0.792-4.069-0.819-6.144v-204.254l-149.367-86.289v88.474l57.754 29.901zM229.649 230.912v86.699l184.32 106.633c9.994 3.782 16.616 13.339 16.657 24.030v203.435l2.594 1.502 146.637 85.333v-86.289l-63.488-35.635c-1.625-0.969-3.127-2.116-4.506-3.413-1.406-1.447-2.649-3.045-3.686-4.779l-0.819-1.365-1.775-4.233v-1.638c-0.519-2.007-0.792-4.069-0.819-6.144v-203.025l-275.115-161.109z" />
<glyph unicode="&#xe908;" glyph-name="icon_support" horiz-adv-x="830" d="M827.503 702.616l-13.838 49.816-105.168 105.168-49.816 13.838-35.978-35.978 13.838-49.816 33.211-33.211-222.789-222.789h-5.535v283.676h6.919l33.211 83.027-33.211 56.735h-66.422l-33.211-56.735 33.211-83.027h6.919v-285.059h-5.535l-210.335 211.719 5.535 5.535c6.919 6.919 8.303 15.222 6.919 24.908l-17.989 67.805c-2.768 8.303-9.686 15.222-17.989 17.989l-52.584 13.838c-13.838 4.151-27.676-4.151-31.827-17.989s4.151-27.676 17.989-31.827l37.362-9.686 11.070-38.746-29.059-29.059-38.746 11.070-8.303 34.595c-4.151 13.838-17.989 22.141-31.827 17.989s-22.141-17.989-17.989-31.827l13.838-49.816c2.768-8.303 9.686-15.222 17.989-17.989l67.805-17.989 6.919-1.384c6.919 0 13.838 2.768 17.989 6.919l6.919 6.919 175.741-175.741h-6.919c-8.303 0-13.838-5.535-13.838-13.838v-83.027c0-8.303 5.535-13.838 13.838-13.838h22.141v-390.227c0-5.535 1.384-9.686 2.768-13.838l31.827-53.968c4.151-8.303 12.454-12.454 22.141-12.454h62.27c9.686 0 17.989 5.535 22.141 12.454l31.827 53.968c2.768 4.151 4.151 9.686 2.768 15.222v388.843h16.605c8.303 0 13.838 5.535 13.838 13.838v83.027c0 8.303-5.535 13.838-13.838 13.838l186.811 186.811 34.595-34.595 49.816-13.838 35.978 38.746zM452.497 32.865l-20.757-34.595h-33.211l-20.757 35.978v359.784h73.341v-361.168h1.384zM506.465 445.232h-186.811v55.351h186.811v-55.351z" />
<glyph unicode="&#xe909;" glyph-name="icon_telecom" horiz-adv-x="774" d="M768.874 61.627l-136.242 217.413 44.082 24.976v279.227l-239.641 140.238-241.389-140.238v-279.102l158.845-91.411-87.415-151.602c-4.221-7.255-4.271-16.209-0.125-23.502 4.133-7.305 11.838-11.851 20.23-11.963h462.049c8.454 0.175 16.172 4.87 20.23 12.3 4.046 7.43 3.809 16.459-0.624 23.664zM242.888 331.489v224.78l193.811 112.39 192.812-112.39v-224.156l-193.311-112.39-193.311 111.766zM328.304 72.866l67.184 116.261 40.71-23.477 155.473 89.912 114.513-182.697h-377.881zM647.493 701.877c5.757-3.072 12.912-0.887 15.984 4.87s0.887 12.912-4.87 15.984l-222.533 119.009-343.789-193.186v-238.892c-0.462-4.508 1.673-8.879 5.52-11.276s8.716-2.398 12.563 0c3.846 2.398 5.982 6.781 5.52 11.276v224.78l320.437 179.7 211.169-112.265zM433.826 927.781l129.623-70.181c5.719-3.109 12.875-0.974 15.984 4.745s0.974 12.875-4.745 15.984l-140.987 76.425-431.953-242.513v-195.184c-0.462-4.508 1.673-8.879 5.52-11.276s8.716-2.398 12.563 0c3.846 2.398 5.982 6.781 5.52 11.276v181.448l408.476 229.276zM470.416 385.186c4.258-0.037 8.204 2.248 10.315 5.957 2.098 3.709 2.023 8.267-0.2 11.901l-77.549 130.872 6.119 3.497 105.647-51.949c3.846-2.348 8.679-2.31 12.488 0.087s5.932 6.743 5.482 11.227c-0.45 4.483-3.397 8.317-7.605 9.903l-110.392 54.447v32.094l-45.081 26.224-44.956-26.224v-52.449l28.972-17.108-9.491-126.002c-0.050-6.306 4.608-11.664 10.864-12.488h0.874c6.019 0.312 10.964 4.883 11.739 10.864l9.241 122.88 5.62 3.247 77.799-131.247c2.123-3.572 5.969-5.757 10.115-5.744zM721.296-13.3h-407.977c-13.037 0-23.602-10.565-23.602-23.602s10.565-23.602 23.602-23.602h407.852c8.429-0.025 16.234 4.458 20.468 11.751s4.258 16.284 0.062 23.602c-4.196 7.318-11.976 11.838-20.405 11.851z" />
<glyph unicode="&#xe90a;" glyph-name="icon_UPS" horiz-adv-x="996" d="M486.4 614.469h-119.005l-81.228-234.69 135.611 0.277-77.492-187.088 207.706 256.554-161.764-2.214zM979.719 955.572c-5.023 3.971-12.136 3.971-17.159 0l-264.579-226.249-2.629 1.522-124.541 143.775c-4.151 4.553-10.89 5.618-16.246 2.56-5.341-3.058-7.86-9.41-6.033-15.291l18.404-55.351-140.869 82.335c-8.123 4.719-18.169 4.719-26.292 0l-385.937-224.173c-8.040-4.677-12.994-13.257-13.008-22.556v-445.994c0-9.368 5.009-18.031 13.146-22.694l384.138-221.405c8.095-4.677 18.058-4.677 26.154 0l384.138 221.405c8.081 4.691 13.035 13.354 13.008 22.694v445.994c-0.014 9.299-4.968 17.878-13.008 22.556l-3.183 1.937 177.263 271.914c3.515 5.563 2.325 12.855-2.768 17.021zM769.384 212.203l-357.985-207.568-357.985 206.184v416.242l358.815 208.675 178.923-104.476 77.907-235.243c1.73-4.677 5.867-8.067 10.794-8.856h1.661c4.096 0.028 7.943 1.965 10.378 5.258l76.8 118.314v-398.945l0.692 0.415zM685.388 530.474l-92.16 278.694 92.99-106.69c4.885-5.078 12.814-5.674 18.404-1.384l206.461 176.571-225.695-347.191z" />
<glyph unicode="&#xe90b;" glyph-name="home3" d="M1024 352l-192 192v288h-128v-160l-192 192-512-512v-32h128v-320h320v192h128v-192h320v320h128z" />
<glyph unicode="&#xe90c;" glyph-name="IBM" horiz-adv-x="5248" d="M1423.987 927.988v-65.68h467.158v65.68h-467.158zM1957.332 927.988v-65.68h665.721c0 0-68.001 65.68-158.064 65.68h-507.658zM2753.647 927.988v-65.68h402.751l-23.908 65.68h-378.845zM3445.149 927.988l-23.908-65.68h399.095v65.68h-375.188zM1423.987 800.254v-65.679h467.158v65.679h-467.158zM1957.332 800.162v-65.588h742.971c0 0-8.676 50.551-23.812 65.588h-719.158zM2753.647 800.162v-65.588h446.908l-22.124 65.588h-424.782zM3397.336 800.162l-22.124-65.588h445.126v65.588h-423.001zM1558.237 672.521v-65.775h202.312v65.775h-202.312zM2091.583 672.521v-65.775h202.312v65.775h-202.312zM2490.677 672.521v-65.775h202.312c0 0 12.844 34.735 12.844 65.775h-215.156zM2887.897 672.521v-65.775h358.688l-23.908 65.775h-334.782zM3353.274 672.521l-24-65.775h360.47v65.775h-336.47zM1558.237 544.693v-65.679h202.312v65.679h-202.312zM2091.583 544.693v-65.679h516.751c0 0 43.229 33.7 57 65.679h-573.752zM2887.897 544.693v-65.679h202.312v36.563l12.844-36.563h370.595l13.78 36.563v-36.563h202.312v65.679h-379.782l-20.156-55.634-20.251 55.634h-381.657zM1558.237 416.96v-65.679h202.312v65.679h-202.312zM2091.583 416.96v-65.679h573.751c-13.774 31.876-57 65.679-57 65.679h-516.751zM2887.897 416.96v-65.679h202.312v65.679h-202.312zM3126.961 416.96l24.468-65.679h277.876l23.251 65.679h-325.595zM3487.431 416.96v-65.679h202.312v65.679h-202.312zM1558.237 289.227v-65.679h202.312v65.679h-202.312zM2091.583 289.227v-65.679h202.312v65.679h-202.312zM2490.677 289.227v-65.679h215.156c0 30.995-12.844 65.679-12.844 65.679h-202.312zM2887.897 289.227v-65.679h202.312v65.679h-202.312zM3172.898 289.227l23.72-65.679h186.281l23.908 65.679h-233.908zM3487.431 289.227v-65.679h202.312v65.679h-202.312zM1427.643 161.494v-65.775h467.158v65.775h-467.158zM1957.332 161.494v-65.775h719.158c15.136 15.061 23.812 65.775 23.812 65.775h-742.971zM2757.304 161.494v-65.775h332.908v65.775h-332.908zM3218.93 161.494l24.376-65.775h94.78l22.876 65.775h-142.032zM3487.431 161.494v-65.775h336.564v65.775h-336.564zM1427.643 33.667v-65.68h467.158v65.68h-467.158zM1957.332 33.667v-65.588h507.658c90.063 0 158.064 65.588 158.064 65.588h-665.721zM2757.304 33.667v-65.68h332.908v65.68h-332.908zM3265.148 33.667l23.436-65.494 4.032-0.091 23.812 65.588h-51.28zM3487.431 33.667v-65.68h336.564v65.68h-336.564z" />
<glyph unicode="&#xe90d;" glyph-name="image" d="M959.884 832c0.040-0.034 0.082-0.076 0.116-0.116v-767.77c-0.034-0.040-0.076-0.082-0.116-0.116h-895.77c-0.040 0.034-0.082 0.076-0.114 0.116v767.772c0.034 0.040 0.076 0.082 0.114 0.114h895.77zM960 896h-896c-35.2 0-64-28.8-64-64v-768c0-35.2 28.8-64 64-64h896c35.2 0 64 28.8 64 64v768c0 35.2-28.8 64-64 64v0zM832 672c0-53.020-42.98-96-96-96s-96 42.98-96 96 42.98 96 96 96 96-42.98 96-96zM896 128h-768v128l224 384 256-320h64l224 192z" />
<glyph unicode="&#xe90e;" glyph-name="images" horiz-adv-x="1152" d="M1088 832h-64v64c0 35.2-28.8 64-64 64h-896c-35.2 0-64-28.8-64-64v-768c0-35.2 28.8-64 64-64h64v-64c0-35.2 28.8-64 64-64h896c35.2 0 64 28.8 64 64v768c0 35.2-28.8 64-64 64zM128 768v-640h-63.886c-0.040 0.034-0.082 0.076-0.114 0.116v767.77c0.034 0.040 0.076 0.082 0.114 0.114h895.77c0.040-0.034 0.082-0.076 0.116-0.116v-63.884h-768c-35.2 0-64-28.8-64-64v0zM1088 0.116c-0.034-0.040-0.076-0.082-0.116-0.116h-895.77c-0.040 0.034-0.082 0.076-0.114 0.116v767.77c0.034 0.040 0.076 0.082 0.114 0.114h895.77c0.040-0.034 0.082-0.076 0.116-0.116v-767.768zM960 608c0-53.020-42.98-96-96-96s-96 42.98-96 96 42.98 96 96 96 96-42.98 96-96zM1024 64h-768v128l224 384 256-320h64l224 192z" />
<glyph unicode="&#xe90f;" glyph-name="camera" d="M304 352c0-114.876 93.124-208 208-208s208 93.124 208 208-93.124 208-208 208-208-93.124-208-208zM960 704h-224c-16 64-32 128-96 128h-256c-64 0-80-64-96-128h-224c-35.2 0-64-28.8-64-64v-576c0-35.2 28.8-64 64-64h896c35.2 0 64 28.8 64 64v576c0 35.2-28.8 64-64 64zM512 68c-156.85 0-284 127.148-284 284 0 156.85 127.15 284 284 284 156.852 0 284-127.15 284-284 0-156.852-127.146-284-284-284zM960 512h-128v64h128v-64z" />
<glyph unicode="&#xe910;" glyph-name="headphones" d="M288 384h-64v-448h64c17.6 0 32 14.4 32 32v384c0 17.6-14.4 32-32 32zM736 384c-17.602 0-32-14.4-32-32v-384c0-17.6 14.398-32 32-32h64v448h-64zM1024 448c0 282.77-229.23 512-512 512s-512-229.23-512-512c0-61.412 10.83-120.29 30.656-174.848-19.478-33.206-30.656-71.87-30.656-113.152 0-112.846 83.448-206.188 192-221.716v443.418c-31.914-4.566-61.664-15.842-87.754-32.378-5.392 26.718-8.246 54.364-8.246 82.676 0 229.75 186.25 416 416 416s416-186.25 416-416c0-28.314-2.83-55.968-8.22-82.696-26.1 16.546-55.854 27.848-87.78 32.418v-443.44c108.548 15.532 192 108.874 192 221.714 0 41.274-11.178 79.934-30.648 113.138 19.828 54.566 30.648 113.452 30.648 174.866z" />
<glyph unicode="&#xe911;" glyph-name="music" d="M960 960h64v-736c0-88.366-100.29-160-224-160s-224 71.634-224 160c0 88.368 100.29 160 224 160 62.684 0 119.342-18.4 160-48.040v368.040l-512-113.778v-494.222c0-88.366-100.288-160-224-160s-224 71.634-224 160c0 88.368 100.288 160 224 160 62.684 0 119.342-18.4 160-48.040v624.040l576 128z" />
<glyph unicode="&#xe912;" glyph-name="play" d="M981.188 799.892c-143.632 20.65-302.332 32.108-469.186 32.108-166.86 0-325.556-11.458-469.194-32.108-27.53-107.726-42.808-226.75-42.808-351.892 0-125.14 15.278-244.166 42.808-351.89 143.638-20.652 302.336-32.11 469.194-32.11 166.854 0 325.552 11.458 469.186 32.11 27.532 107.724 42.812 226.75 42.812 351.89 0 125.142-15.28 244.166-42.812 351.892zM384.002 256v384l320-192-320-192z" />
<glyph unicode="&#xe913;" glyph-name="film" d="M0 832v-768h1024v768h-1024zM192 128h-128v128h128v-128zM192 384h-128v128h128v-128zM192 640h-128v128h128v-128zM768 128h-512v640h512v-640zM960 128h-128v128h128v-128zM960 384h-128v128h128v-128zM960 640h-128v128h128v-128zM384 640v-384l256 192z" />
<glyph unicode="&#xe914;" glyph-name="oracle" horiz-adv-x="1505" d="M1495.173-3.006h-1485.361v334.582h1485.361v-334.582zM1275.312 110.102c-24.746 0-45.567 16.634-51.975 39.362h137.384l18.819 29.433h-156.37c6.503 22.784 27.284 39.287 52.141 39.287h94.43l18.874 29.635h-115.549c-46.103 0-83.447-37.415-83.447-83.522 0-46.214 37.344-83.649 83.447-83.649h99.208l18.838 29.453h-115.806zM882.216 80.653c-46.158 0-83.446 37.435-83.446 83.649 0 46.103 37.288 83.522 83.446 83.522h115.453l-19.005-29.635h-94.228c-29.913 0-54.124-24.156-54.124-53.882 0-29.933 24.211-54.2 54.124-54.2h115.953l-18.969-29.453h-99.208zM271.941 110.102c29.877 0 54.215 24.267 54.215 54.2 0 29.731-24.338 53.882-54.215 53.882h-92.709c-29.822 0-54.104-24.156-54.104-53.882 0-29.933 24.283-54.2 54.104-54.2h92.709zM177.064 80.653c-46.122 0-83.577 37.435-83.577 83.649 0 46.103 37.455 83.522 83.577 83.522h97.171c46.178 0 83.447-37.415 83.447-83.522 0-46.214-37.268-83.704-83.447-83.704l-97.171 0.056zM515.46 134.738c31.36 0 56.515 25.413 56.515 56.515 0 31.154-25.155 56.571-56.515 56.571h-140.588v-167.17h32.102v137.535h106.341c14.782 0 27.006-11.983 27.006-26.931 0-14.913-12.224-26.951-27.006-26.951h-90.56l95.913-83.649h46.733l-64.552 54.089h14.615zM1047.054 110.102v137.717h-32.062v-151.239c0-4.112 1.554-8.093 4.631-11.079 3.241-3.072 7.371-4.853 11.78-4.853h146.445l19.080 29.453h-149.87zM653.625 139.667h85.909l-45.326 72.928-83.245-131.94-37.879-0.056 101.21 158.574c4.445 6.316 11.705 10.373 19.913 10.373 7.835 0 15.171-3.91 19.374-10.171l101.73-158.78-38.121 0.056-17.708 29.509h-86.892l-18.969 29.509zM1420.268 231.519c1.297 0 2.629 0.167 3.466 1.388 0.297 0.48 0.48 1.039 0.48 1.796 0 1.13-0.63 2.169-1.519 2.462-0.908 0.5-1.907 0.5-3.91 0.5h-1.297v-6.15h2.78zM1418.785 241.001c3.002 0 4.112 0 5.428-0.5 3.814-1.316 4.223-4.667 4.223-5.872 0-0.222-0.111-0.983-0.222-1.721-0.186-0.872-0.762-2.518-2.573-3.632-0.242-0.131-0.389-0.313-0.999-0.555l4.909-8.632h-4.798l-4.167 8.057h-3.093v-8.057h-3.945v20.912h5.242zM1420.581 211.142c10.282 0 18.819 8.486 18.819 18.727 0 10.448-8.542 18.783-18.819 18.783-10.52 0-18.819-8.335-18.819-18.783 0-10.242 8.299-18.727 18.819-18.727zM1405.801 230.072c0 8.002 6.519 14.707 14.782 14.707 8.133 0 14.782-6.705 14.782-14.707 0-8.373-6.65-14.968-14.782-14.968-8.26 0-14.782 6.594-14.782 14.968zM824.194 566.881c0-33.101-12.149-60.33-36.436-81.575-24.322-21.226-56.919-31.84-97.764-31.84-38.196 0-75.239 12.189-111.099 36.507l16.78 33.525c30.861-15.468 58.791-23.117 83.871-23.117 23.525 0 41.935 5.222 55.274 15.559 13.264 10.408 21.245 24.933 21.245 43.418 0 23.152-16.19 43.010-45.825 59.644-27.395 15.024-82.186 46.4-82.186 46.4-29.635 21.634-44.529 44.862-44.529 83.132 0 31.658 11.059 57.217 33.248 76.705 22.133 19.485 50.845 29.211 85.948 29.211 36.249 0 69.184-9.651 98.95-28.914l-15.079-33.565c-25.432 10.781-50.512 16.21-75.203 16.21-20.079 0-35.528-4.818-46.325-14.465-10.781-9.651-17.505-22.007-17.505-37.046 0-23.117 16.558-43.176 47.066-60.127 27.728-15.095 83.871-47.066 83.871-47.066 30.488-21.618 45.696-44.679 45.696-82.594zM1177.163 746.831h48.605l4.631-32.379c28.581 25.452 58.256 38.176 89.152 38.176 57.772 0 86.781-43.159 86.781-129.625v-164.28h-59.663v152.721c0 34.751-3.799 58.942-11.523 72.61-7.704 13.743-19.707 20.543-35.896 20.543-16.947 0-37.768-9.631-62.459-28.914v-216.961h-59.624v288.107zM1103.94 458.716h-48.605l-4.631 32.415c-28.581-25.468-58.2-38.252-89.097-38.252-57.883 0-86.837 43.252-86.837 129.646v164.3h59.608v-152.741c0-34.711 3.854-58.942 11.594-72.59 7.689-13.727 19.691-20.543 35.881-20.543 16.947 0 37.768 9.612 62.459 28.969v216.905h59.624v-288.107zM340.229 651.053l-9.465 9.485 97.19 97.171-23.858 23.894-96.024-95.987c-8.021-7.891-12.038-18.394-12.022-28.783 0-10.52 4.001-20.932 12.002-28.823 7.926-7.966 18.263-11.911 28.767-11.911 10.373 0 20.781 3.945 28.727 11.911l96.043 96.060-24.156 24.136-97.209-97.154zM468.156 663.573l9.499-9.465-97.189-97.171 23.877-23.858 95.968 95.968c8.021 7.891 12.038 18.374 12.002 28.783 0 10.484-3.981 20.912-12.002 28.823-7.91 7.926-18.283 11.891-28.727 11.891-10.373 0-20.801-3.925-28.727-11.927l-96.079-96.024 24.171-24.172 97.209 97.154zM276.851 726.972l-9.429-9.54-97.189 97.154-23.877-23.765 95.949-96.024c7.91-8.037 18.41-12.038 28.822-12.038 10.52 0 20.876 4.001 28.839 12.038 7.926 7.91 11.856 18.263 11.856 28.727-0.020 10.353-3.926 20.837-11.872 28.747l-96.059 96.079-24.156-24.227 97.114-97.154zM264.341 854.852l9.465 9.499 97.209-97.19 23.894 23.858-95.987 95.987c-7.926 8.021-18.41 12.022-28.839 12.022-10.52 0-20.857-4.001-28.839-12.022-7.91-7.891-11.856-18.263-11.856-28.712 0-10.353 3.945-20.781 11.891-28.767l96.079-96.043 24.136 24.156-97.154 97.209zM277.157 459.792l-9.465-9.465-97.171 97.19-23.877-23.894 95.987-95.968c7.855-8.021 18.374-12.022 28.747-12.002 10.52 0 20.932 3.981 28.858 12.038 7.926 7.91 11.872 18.228 11.872 28.672 0 10.353-3.945 20.821-11.872 28.783l-96.060 96.043-24.172-24.172 97.154-97.227zM264.649 587.734l9.445 9.485 97.227-97.154 23.858 23.838-95.987 95.987c-7.891 8.037-18.41 12.078-28.803 12.038-10.504 0-20.892-4.001-28.823-12.038-7.926-7.91-11.871-18.263-11.871-28.727 0-10.353 3.91-20.801 11.856-28.712l96.098-96.098 24.136 24.172-97.134 97.209zM73.186 650.908l-9.485 9.499 97.227 97.154-23.858 23.877-95.987-95.968c-8.037-7.871-12.058-18.394-12.038-28.767 0-10.52 4.001-20.912 12.002-28.839 7.891-7.966 18.263-11.891 28.712-11.891 10.393 0 20.821 3.925 28.767 11.891l96.060 96.043-24.172 24.172-97.227-97.171zM201.153 663.458l9.465-9.485-97.19-97.209 23.858-23.858 96.024 96.004c7.966 7.871 12.002 18.374 11.967 28.803 0.036 10.484-4.001 20.876-11.967 28.803-7.946 7.946-18.319 11.891-28.747 11.891-10.393 0-20.801-3.945-28.747-11.891l-96.060-96.060 24.156-24.156 97.245 97.154z" />
<glyph unicode="&#xe915;" glyph-name="microsoft" horiz-adv-x="4797" d="M1679.36 374.745l-28.357-80.345h-2.363c-4.726 18.117-13.391 45.686-27.569 78.769l-152.025 382.031h-148.874v-608.886h98.462v375.729c0 23.631 0 50.412-0.788 83.495-0.788 16.542-2.363 29.145-3.151 38.597h2.363c4.726-23.631 10.24-40.96 14.178-51.988l182.745-444.258h69.317l181.169 448.197c3.938 10.24 7.877 30.72 11.815 48.049h2.363c-2.363-44.898-3.938-85.071-4.726-109.489v-385.969h104.763v608.098h-143.36l-155.963-382.031zM2077.932 585.058h102.4v-436.382h-102.4zM2129.92 769.378c-17.329 0-31.508-6.302-43.323-17.329s-18.117-25.206-18.117-42.535c0-16.542 6.302-30.72 18.117-41.748s25.994-16.542 43.323-16.542 32.295 6.302 43.323 16.542c11.815 11.028 18.117 25.206 18.117 41.748s-6.302 30.72-18.117 42.535c-10.24 11.028-25.206 17.329-43.323 17.329zM2543.458 588.997c-18.905 3.938-38.597 6.302-57.502 6.302-46.474 0-89.009-10.24-124.455-30.72s-63.803-48.837-81.92-84.283c-18.905-36.234-28.357-77.982-28.357-126.031 0-41.748 9.452-78.769 27.569-112.64 18.117-33.083 43.323-59.865 77.194-77.982 32.295-18.117 70.105-27.569 112.64-27.569 48.837 0 90.585 10.24 123.668 29.145l0.788 0.788v94.523l-3.938-3.151c-14.966-11.028-32.295-20.48-49.625-25.994-18.117-6.302-34.658-9.452-48.837-9.452-40.96 0-73.255 11.815-96.098 37.809-23.631 25.206-35.446 59.865-35.446 103.188 0 44.898 11.815 80.345 36.234 106.338s56.714 39.385 96.098 39.385c33.083 0 66.954-11.028 97.674-33.083l3.938-3.151v100.037l-0.788 0.788c-13.391 5.514-28.357 11.815-48.837 15.754zM2881.378 592.148c-25.206 0-48.837-7.877-69.317-24.418-17.329-14.178-29.145-34.658-39.385-59.077h-0.788v76.406h-102.4v-436.382h102.4v222.917c0 37.809 7.877 69.317 25.206 92.16 17.329 23.631 39.385 35.446 66.166 35.446 9.452 0 18.905-2.363 30.72-3.938 11.028-3.151 18.905-6.302 24.418-10.24l3.938-3.151v102.4l-2.363 0.788c-7.089 4.726-21.268 7.089-38.597 7.089zM3160.222 594.511c-71.68 0-129.182-21.268-169.354-63.015-40.96-41.748-60.652-99.249-60.652-171.717 0-67.742 20.48-122.88 59.865-163.052 39.385-39.385 92.948-59.865 159.902-59.865 70.105 0 126.031 21.268 166.203 63.803 40.96 42.535 60.652 99.249 60.652 169.354 0 69.317-18.905 124.455-57.502 164.628-37.022 40.172-91.372 59.865-159.114 59.865zM3242.142 258.954c-18.905-24.418-48.837-36.234-85.858-36.234s-66.954 11.815-88.222 37.809c-21.268 24.418-31.508 59.865-31.508 104.763 0 46.474 11.028 81.92 31.508 107.126 21.268 25.206 50.412 37.809 87.434 37.809 36.234 0 64.591-11.815 85.071-36.234s31.508-59.865 31.508-106.338c-1.575-47.262-10.24-84.283-29.932-108.702zM3605.268 403.889c-32.295 13.391-52.775 23.631-62.228 32.295-7.877 7.877-11.815 18.905-11.815 33.083 0 11.815 4.726 23.631 16.542 31.508s25.206 11.815 44.898 11.815c17.329 0 35.446-3.151 52.775-7.877s33.083-11.815 45.686-21.268l3.938-3.151v96.098l-2.363 0.788c-11.815 4.726-27.569 9.452-46.474 13.391-18.905 3.151-36.234 4.726-50.412 4.726-48.837 0-89.009-11.815-120.517-37.809-31.508-24.418-46.474-57.502-46.474-96.098 0-20.48 3.151-38.597 10.24-53.563s17.329-29.145 31.508-40.96c14.178-11.028 34.658-23.631 63.015-35.446 23.631-10.24 41.748-18.117 52.775-24.418s18.117-13.391 23.631-18.905c3.938-6.302 6.302-14.178 6.302-24.418 0-29.145-22.055-43.323-66.954-43.323-17.329 0-35.446 3.151-56.714 10.24s-40.96 17.329-57.502 29.145l-3.938 3.151v-100.037l2.363-0.788c14.966-7.089 33.083-11.815 55.138-17.329 22.055-3.938 41.748-7.089 59.077-7.089 52.775 0 96.098 11.815 126.818 37.809 31.508 25.206 48.049 57.502 48.049 99.249 0 29.145-7.877 55.138-25.206 74.831-22.843 18.905-51.2 38.597-92.16 54.351zM3992.812 594.511c-71.68 0-129.182-21.268-169.354-63.015s-60.652-99.249-60.652-171.717c0-67.742 20.48-122.88 59.865-163.052 39.385-39.385 92.948-59.865 159.902-59.865 70.105 0 126.031 21.268 166.203 63.803 40.96 42.535 60.652 99.249 60.652 169.354 0 69.317-18.905 124.455-57.502 164.628-37.022 40.172-91.372 59.865-159.114 59.865zM4073.945 258.954c-18.905-24.418-48.837-36.234-85.858-36.234-37.809 0-66.954 11.815-88.222 37.809-21.268 24.418-31.508 59.865-31.508 104.763 0 46.474 11.028 81.92 31.508 107.126 21.268 25.206 50.412 37.809 87.434 37.809 35.446 0 64.591-11.815 85.071-36.234s31.508-59.865 31.508-106.338c0-47.262-10.24-84.283-29.932-108.702zM4756.874 500.775v84.283h-103.188v129.182l-3.151-0.788-100.037-29.932v-98.462h-154.388v55.138c0 25.206 6.302 44.898 17.329 57.502s27.569 18.905 48.049 18.905c14.178 0 29.145-3.151 45.686-10.24l3.938-2.363v89.009l-2.363 0.788c-14.178 4.726-33.083 7.877-57.502 7.877-30.72 0-57.502-7.089-81.92-18.905-24.418-13.391-42.535-31.508-55.926-55.926-13.391-23.631-20.48-50.412-20.48-81.132v-60.652h-71.68v-83.495h71.68v-352.886h103.188v352.098h154.388v-224.492c0-92.16 43.323-138.634 129.969-138.634 14.178 0 29.145 2.363 43.323 4.726 14.966 3.151 25.994 7.089 32.295 10.24l0.788 0.788v84.283l-3.938-3.151c-6.302-3.938-11.815-7.089-21.268-9.452-7.877-2.363-14.966-3.151-20.48-3.151-20.48 0-34.658 4.726-44.898 16.542-9.452 11.028-14.178 29.145-14.178 55.926v206.375h104.763zM0 960h482.855v-482.855h-482.855zM533.268 960h482.855v-482.855h-482.855zM0 426.732h482.855v-482.855h-482.855zM533.268 426.732h482.855v-482.855h-482.855z" />
<glyph unicode="&#xe916;" glyph-name="Dell_1989_Print" horiz-adv-x="3674" d="M223.793 904.038v-925.035h442.539c194.608 0 443.835 123.995 443.835 463.057 0 370.775-289.696 461.977-554.416 461.977h-331.959zM550.784 618.299c0 0 57.018 0 57.018 0 89.39 0 165.551-77.1 166.735-180.774-0.001-0.065 0.001-0.148 0-0.216-1.185-103.674-69.139-180.558-158.528-180.558 0 0-65.225 0-65.225 0v361.548zM2158.171 904.038v-925.086h612.537v292.5h-288.455v632.586h-324.081zM1867.119 763.606l-452.49-285.282-78.822 53.019 0.177-0.024 462.827 294.762 0.867-0.603-211.636 134.525-806.102-512.674 810.21-511.327 800.48 510.065-231.802 141.531-461.454-290.734-77.541 52.813 448.503 284.934-203.218 128.995zM2828.977 904.122v-924.093h612.537v291.424h-288.455v632.669h-324.081zM3313.847 905.588h54.449v-12.95h-20.014v-58.57h-14.422v58.57h-20.014v12.95zM3406.31 842.499l-17.451 43.237v-51.038h-13.431v70.845h22.122l15.244-43.114 15.243 43.114h22.122v-70.845h-13.431v51.038l-17.451-43.237h-12.967z" />
<glyph unicode="&#xe917;" glyph-name="intel" horiz-adv-x="1532" d="M452.902 524.874v-248.231h-79.019v312.015l163.135-0.162c69.29 0 92.894-48.863 92.894-93.246v-218.607h-78.876v218.198c0 18.592-9.624 30.033-32.838 30.033h-65.296zM990.218 528.602c-27.008 0-47.912-13.885-56.642-32.734-5.173-11.317-6.952-19.99-7.56-33.846h121.567c-1.56 33.846-16.909 66.58-57.364 66.58zM926.016 408.243c0-40.418 25.125-70.165 69.984-70.165 34.902 0 52.248 9.672 72.428 29.747l48.806-46.599c-31.25-30.851-64.041-49.585-121.814-49.585-75.643 0-148.033 41.245-148.033 161.452 0 102.708 63.204 160.853 146.255 160.853 84.183 0 132.817-68.073 132.817-157.239v-28.464h-200.443zM780.684 277.033c-64.373 0-91.686 44.811-91.686 89.071v307.564h78.895v-85.010h59.476v-63.784h-59.476v-153.825c0-18.126 8.559-28.188 27.379-28.188h32.096v-65.828h-46.685zM303.575 631.777h-79.561v75.576h79.561v-75.576zM303.775 273.363c-59.58 5.725-79.846 41.863-79.846 83.565l0.086 231.731h79.761v-315.296zM1252.030 280.029c-59.457 5.735-79.627 41.816-79.627 83.46v354.62h79.627v-438.080zM1530.398 666.859c-72.162 351.824-755.106 374.096-1195.306 106.113v-29.586c439.753 225.996 1063.431 224.665 1120.253-99.38 19.011-107.15-41.369-218.864-149.203-283.076v-84.012c129.793 47.484 262.905 201.46 224.256 389.94zM730.215 51.304c-303.807-28.083-620.396 16.015-664.694 253.414-21.683 117.030 31.63 241.089 102.356 318.149v41.207c-127.32-111.648-196.42-252.995-156.64-420.010 50.774-214.166 322.485-335.533 737.208-295.229 164.086 16.015 378.851 68.777 528.159 150.724v116.422c-135.48-80.674-359.669-147.386-546.389-164.676zM1344.074 694.561c0 3.861-2.254 5.088-7.408 5.088h-4.974v-10.927c0.723 0 4.337-0.133 4.974-0.133 5.154 0 7.408 1.721 7.408 5.335v0.637zM1351.834 667.467h-5.896c-0.533 0-0.999 0.333-1.227 0.78l-8.045 13.637c-0.143 0.275-0.837 0.609-1.113 0.609h-3.614v-13.523c0-0.723-0.495-1.503-1.446-1.503h-5.335c-0.666 0-1.331 0.78-1.331 1.503v34.208c0 1.978 0.77 2.805 2.444 3.062 1.883 0.247 6.999 0.418 9.757 0.418 9.795 0 15.72-2.891 15.72-12.097v-0.637c0-5.697-2.834-8.702-7.228-10.176l8.34-14.103c0.053-0.285 0.247-0.676 0.247-1.008 0-0.552-0.333-1.17-1.274-1.17zM1337.836 712.83c-14.512 0-26.248-11.983-26.248-26.409 0-14.446 11.735-26.238 26.248-26.238 14.436 0 26.286 11.792 26.286 26.238 0 14.427-11.849 26.409-26.286 26.409zM1337.836 654.743c-17.632 0-31.697 14.227-31.697 31.678 0 17.422 14.065 31.687 31.697 31.687 17.441 0 31.773-14.265 31.773-31.687 0-17.451-14.332-31.678-31.773-31.678z" />
<glyph unicode="&#xe918;" glyph-name="HP" d="M511.999-61.993c-5.069 0-10.117 0.092-15.156 0.238l104.225 286.441h143.435c25.176 0 52.812 19.354 61.423 43l113.077 310.59c18.499 50.85-10.627 92.453-64.736 92.453h-198.989l-166.963-458.794h-0.061l-94.653-260.079c-224.562 53.386-391.594 255.251-391.594 496.144 0 233.949 157.533 431.085 372.301 491.167l-260.058-714.48 108.085-0.009 138.078 379.026h81.23l-138.078-379.026 108.045-0.019 128.674 353.618c18.511 50.85-10.618 92.453-64.677 92.453h-90.856l104.326 286.729c7.605 0.338 15.238 0.536 22.921 0.536 281.662 0 509.992-228.33 509.992-509.994 0-281.657-228.33-509.992-509.992-509.992zM820.572 603.974h-81.209l-113.726-312.035h81.211l113.723 312.035z" />
<glyph unicode="&#xe924;" glyph-name="file-empty" d="M917.806 730.924c-22.212 30.292-53.174 65.7-87.178 99.704s-69.412 64.964-99.704 87.178c-51.574 37.82-76.592 42.194-90.924 42.194h-496c-44.112 0-80-35.888-80-80v-864c0-44.112 35.888-80 80-80h736c44.112 0 80 35.888 80 80v624c0 14.332-4.372 39.35-42.194 90.924zM785.374 785.374c30.7-30.7 54.8-58.398 72.58-81.374h-153.954v153.946c22.984-17.78 50.678-41.878 81.374-72.572zM896 16c0-8.672-7.328-16-16-16h-736c-8.672 0-16 7.328-16 16v864c0 8.672 7.328 16 16 16 0 0 495.956 0.002 496 0v-224c0-17.672 14.326-32 32-32h224v-624z" />
<glyph unicode="&#xe925;" glyph-name="files-empty" d="M917.806 602.924c-22.21 30.292-53.174 65.7-87.178 99.704s-69.412 64.964-99.704 87.178c-51.574 37.82-76.592 42.194-90.924 42.194h-368c-44.114 0-80-35.888-80-80v-736c0-44.112 35.886-80 80-80h608c44.112 0 80 35.888 80 80v496c0 14.332-4.372 39.35-42.194 90.924zM785.374 657.374c30.7-30.7 54.8-58.398 72.58-81.374h-153.954v153.946c22.982-17.78 50.678-41.878 81.374-72.572v0zM896 16c0-8.672-7.328-16-16-16h-608c-8.672 0-16 7.328-16 16v736c0 8.672 7.328 16 16 16 0 0 367.956 0.002 368 0v-224c0-17.672 14.324-32 32-32h224v-496zM602.924 917.804c-51.574 37.822-76.592 42.196-90.924 42.196h-368c-44.112 0-80-35.888-80-80v-736c0-38.632 27.528-70.958 64-78.39v814.39c0 8.672 7.328 16 16 16h486.876c-9.646 7.92-19.028 15.26-27.952 21.804z" />
<glyph unicode="&#xe926;" glyph-name="file-text2" d="M917.806 730.924c-22.212 30.292-53.174 65.7-87.178 99.704s-69.412 64.964-99.704 87.178c-51.574 37.82-76.592 42.194-90.924 42.194h-496c-44.112 0-80-35.888-80-80v-864c0-44.112 35.888-80 80-80h736c44.112 0 80 35.888 80 80v624c0 14.332-4.372 39.35-42.194 90.924zM785.374 785.374c30.7-30.7 54.8-58.398 72.58-81.374h-153.954v153.946c22.984-17.78 50.678-41.878 81.374-72.572zM896 16c0-8.672-7.328-16-16-16h-736c-8.672 0-16 7.328-16 16v864c0 8.672 7.328 16 16 16 0 0 495.956 0.002 496 0v-224c0-17.672 14.326-32 32-32h224v-624zM736 128h-448c-17.672 0-32 14.326-32 32s14.328 32 32 32h448c17.674 0 32-14.326 32-32s-14.326-32-32-32zM736 256h-448c-17.672 0-32 14.326-32 32s14.328 32 32 32h448c17.674 0 32-14.326 32-32s-14.326-32-32-32zM736 384h-448c-17.672 0-32 14.326-32 32s14.328 32 32 32h448c17.674 0 32-14.326 32-32s-14.326-32-32-32z" />
<glyph unicode="&#xe942;" glyph-name="phone" d="M704 320c-64-64-64-128-128-128s-128 64-192 128-128 128-128 192 64 64 128 128-128 256-192 256-192-192-192-192c0-128 131.5-387.5 256-512s384-256 512-256c0 0 192 128 192 192s-192 256-256 192z" />
<glyph unicode="&#xe945;" glyph-name="envelop" d="M928 832h-832c-52.8 0-96-43.2-96-96v-640c0-52.8 43.2-96 96-96h832c52.8 0 96 43.2 96 96v640c0 52.8-43.2 96-96 96zM398.74 409.628l-270.74-210.892v501.642l270.74-290.75zM176.38 704h671.24l-335.62-252-335.62 252zM409.288 398.302l102.712-110.302 102.71 110.302 210.554-270.302h-626.528l210.552 270.302zM625.26 409.628l270.74 290.75v-501.642l-270.74 210.892z" />
<glyph unicode="&#xe947;" glyph-name="location" d="M512 960c-176.732 0-320-143.268-320-320 0-320 320-704 320-704s320 384 320 704c0 176.732-143.27 320-320 320zM512 448c-106.040 0-192 85.96-192 192s85.96 192 192 192 192-85.96 192-192-85.96-192-192-192z" />
<glyph unicode="&#xe948;" glyph-name="location2" d="M512 960c-176.732 0-320-143.268-320-320 0-320 320-704 320-704s320 384 320 704c0 176.732-143.27 320-320 320zM512 444c-108.248 0-196 87.752-196 196s87.752 196 196 196 196-87.752 196-196-87.752-196-196-196zM388 640c0 68.483 55.517 124 124 124s124-55.517 124-124c0-68.483-55.517-124-124-124s-124 55.517-124 124z" />
<glyph unicode="&#xe94e;" glyph-name="clock" d="M658.744 210.744l-210.744 210.746v282.51h128v-229.49l173.256-173.254zM512 960c-282.77 0-512-229.23-512-512s229.23-512 512-512 512 229.23 512 512-229.23 512-512 512zM512 64c-212.078 0-384 171.922-384 384s171.922 384 384 384c212.078 0 384-171.922 384-384s-171.922-384-384-384z" />
<glyph unicode="&#xe96b;" glyph-name="bubble" d="M512 896c282.77 0 512-186.25 512-416 0-229.752-229.23-416-512-416-27.156 0-53.81 1.734-79.824 5.044-109.978-109.978-241.25-129.7-368.176-132.596v26.916c68.536 33.578 128 94.74 128 164.636 0 9.754-0.758 19.33-2.164 28.696-115.796 76.264-189.836 192.754-189.836 323.304 0 229.75 229.23 416 512 416z" />
<glyph unicode="&#xe96c;" glyph-name="bubbles" horiz-adv-x="1152" d="M1088 58.834c0-45.5 26.028-84.908 64-104.184v-15.938c-10.626-1.454-21.472-2.224-32.5-2.224-68.008 0-129.348 28.528-172.722 74.264-26.222-6.982-54.002-10.752-82.778-10.752-159.058 0-288 114.616-288 256s128.942 256 288 256c159.058 0 288-114.616 288-256 0-55.348-19.764-106.592-53.356-148.466-6.824-14.824-10.644-31.312-10.644-48.7zM512 960c278.458 0 504.992-180.614 511.836-405.52-49.182 21.92-103.586 33.52-159.836 33.52-95.56 0-185.816-33.446-254.138-94.178-70.846-62.972-109.862-147.434-109.862-237.822 0-44.672 9.544-87.888 27.736-127.788-5.228-0.126-10.468-0.212-15.736-0.212-27.156 0-53.81 1.734-79.824 5.044-109.978-109.978-241.25-129.7-368.176-132.596v26.916c68.536 33.578 128 94.74 128 164.636 0 9.754-0.758 19.33-2.164 28.696-115.796 76.264-189.836 192.754-189.836 323.304 0 229.75 229.23 416 512 416z" />
<glyph unicode="&#xe96d;" glyph-name="bubbles2" horiz-adv-x="1152" d="M480 960v0c265.096 0 480-173.914 480-388.448s-214.904-388.448-480-388.448c-25.458 0-50.446 1.62-74.834 4.71-103.106-102.694-222.172-121.108-341.166-123.814v25.134c64.252 31.354 116 88.466 116 153.734 0 9.106-0.712 18.048-2.030 26.794-108.558 71.214-177.97 179.988-177.97 301.89 0 214.534 214.904 388.448 480 388.448zM996 89.314c0-55.942 36.314-104.898 92-131.772v-21.542c-103.126 2.318-197.786 18.102-287.142 106.126-21.14-2.65-42.794-4.040-64.858-4.040-95.47 0-183.408 25.758-253.614 69.040 144.674 0.506 281.26 46.854 384.834 130.672 52.208 42.252 93.394 91.826 122.414 147.348 30.766 58.866 46.366 121.582 46.366 186.406 0 10.448-0.45 20.836-1.258 31.168 72.57-59.934 117.258-141.622 117.258-231.676 0-104.488-60.158-197.722-154.24-258.764-1.142-7.496-1.76-15.16-1.76-22.966z" />
<glyph unicode="&#xe977;" glyph-name="quotes-left" d="M225 512c123.712 0 224-100.29 224-224 0-123.712-100.288-224-224-224s-224 100.288-224 224l-1 32c0 247.424 200.576 448 448 448v-128c-85.474 0-165.834-33.286-226.274-93.726-11.634-11.636-22.252-24.016-31.83-37.020 11.438 1.8 23.16 2.746 35.104 2.746zM801 512c123.71 0 224-100.29 224-224 0-123.712-100.29-224-224-224s-224 100.288-224 224l-1 32c0 247.424 200.576 448 448 448v-128c-85.474 0-165.834-33.286-226.274-93.726-11.636-11.636-22.254-24.016-31.832-37.020 11.44 1.8 23.16 2.746 35.106 2.746z" />
<glyph unicode="&#xe978;" glyph-name="quotes-right" d="M800 320c-123.712 0-224 100.29-224 224 0 123.712 100.288 224 224 224s224-100.288 224-224l1-32c0-247.424-200.576-448-448-448v128c85.474 0 165.834 33.286 226.274 93.726 11.634 11.636 22.252 24.016 31.83 37.020-11.438-1.8-23.16-2.746-35.104-2.746zM224 320c-123.71 0-224 100.29-224 224 0 123.712 100.29 224 224 224s224-100.288 224-224l1-32c0-247.424-200.576-448-448-448v128c85.474 0 165.834 33.286 226.274 93.726 11.636 11.636 22.254 24.016 31.832 37.020-11.44-1.8-23.16-2.746-35.106-2.746z" />
<glyph unicode="&#xea0f;" glyph-name="cross" d="M1014.662 137.34c-0.004 0.004-0.008 0.008-0.012 0.010l-310.644 310.65 310.644 310.65c0.004 0.004 0.008 0.006 0.012 0.010 3.344 3.346 5.762 7.254 7.312 11.416 4.246 11.376 1.824 24.682-7.324 33.83l-146.746 146.746c-9.148 9.146-22.45 11.566-33.828 7.32-4.16-1.55-8.070-3.968-11.418-7.31 0-0.004-0.004-0.006-0.008-0.010l-310.648-310.652-310.648 310.65c-0.004 0.004-0.006 0.006-0.010 0.010-3.346 3.342-7.254 5.76-11.414 7.31-11.38 4.248-24.682 1.826-33.83-7.32l-146.748-146.748c-9.148-9.148-11.568-22.452-7.322-33.828 1.552-4.16 3.97-8.072 7.312-11.416 0.004-0.002 0.006-0.006 0.010-0.010l310.65-310.648-310.65-310.652c-0.002-0.004-0.006-0.006-0.008-0.010-3.342-3.346-5.76-7.254-7.314-11.414-4.248-11.376-1.826-24.682 7.322-33.83l146.748-146.746c9.15-9.148 22.452-11.568 33.83-7.322 4.16 1.552 8.070 3.97 11.416 7.312 0.002 0.004 0.006 0.006 0.010 0.010l310.648 310.65 310.648-310.65c0.004-0.002 0.008-0.006 0.012-0.008 3.348-3.344 7.254-5.762 11.414-7.314 11.378-4.246 24.684-1.826 33.828 7.322l146.746 146.748c9.148 9.148 11.57 22.454 7.324 33.83-1.552 4.16-3.97 8.068-7.314 11.414z" />
<glyph unicode="&#xea10;" glyph-name="checkmark" d="M864 832l-480-480-224 224-160-160 384-384 640 640z" />
<glyph unicode="&#xea8b;" glyph-name="google-plus" d="M325.8 502.6v-111.8h184.8c-7.4-48-55.8-140.6-184.8-140.6-111.2 0-202 92.2-202 205.8s90.8 205.8 202 205.8c63.4 0 105.6-27 129.8-50.2l88.4 85.2c-56.8 53-130.4 85.2-218.2 85.2-180.2-0.2-325.8-145.8-325.8-326s145.6-325.8 325.8-325.8c188 0 312.8 132.2 312.8 318.4 0 21.4-2.4 37.8-5.2 54h-307.6zM1024 512h-96v96h-96v-96h-96v-96h96v-96h96v96h96z" />
<glyph unicode="&#xea8c;" glyph-name="google-plus2" d="M928 960h-832c-52.8 0-96-43.2-96-96v-832c0-52.8 43.2-96 96-96h832c52.8 0 96 43.2 96 96v832c0 52.8-43.2 96-96 96zM384 192c-141.6 0-256 114.4-256 256s114.4 256 256 256c69.2 0 127-25.2 171.6-67l-69.6-66.8c-19 18.2-52.2 39.4-102 39.4-87.4 0-158.8-72.4-158.8-161.6s71.4-161.6 158.8-161.6c101.4 0 139.4 72.8 145.2 110.4h-145.2v87.8h241.8c2.2-12.8 4-25.6 4-42.4 0-146.4-98-250.2-245.8-250.2zM896 448h-64v-64h-64v64h-64v64h64v64h64v-64h64v-64z" />
<glyph unicode="&#xea8d;" glyph-name="google-plus3" d="M512 960c-282.8 0-512-229.2-512-512s229.2-512 512-512 512 229.2 512 512-229.2 512-512 512zM384 192c-141.6 0-256 114.4-256 256s114.4 256 256 256c69.2 0 127-25.2 171.6-67l-69.6-66.8c-19 18.2-52.2 39.4-102 39.4-87.4 0-158.8-72.4-158.8-161.6s71.4-161.6 158.8-161.6c101.4 0 139.4 72.8 145.2 110.4h-145.2v87.8h241.8c2.2-12.8 4-25.6 4-42.4 0-146.4-98-250.2-245.8-250.2zM832 448v-64h-64v64h-64v64h64v64h64v-64h64v-64h-64z" />
<glyph unicode="&#xea90;" glyph-name="facebook" d="M608 768h160v192h-160c-123.514 0-224-100.486-224-224v-96h-128v-192h128v-512h192v512h160l32 192h-192v96c0 17.346 14.654 32 32 32z" />
<glyph unicode="&#xea91;" glyph-name="facebook2" d="M928 960h-832c-52.8 0-96-43.2-96-96v-832c0-52.8 43.2-96 96-96h416v448h-128v128h128v64c0 105.8 86.2 192 192 192h128v-128h-128c-35.2 0-64-28.8-64-64v-64h192l-32-128h-160v-448h288c52.8 0 96 43.2 96 96v832c0 52.8-43.2 96-96 96z" />
<glyph unicode="&#xea92;" glyph-name="instagram" d="M512 867.8c136.8 0 153-0.6 206.8-3 50-2.2 77-10.6 95-17.6 23.8-9.2 41-20.4 58.8-38.2 18-18 29-35 38.4-58.8 7-18 15.4-45.2 17.6-95 2.4-54 3-70.2 3-206.8s-0.6-153-3-206.8c-2.2-50-10.6-77-17.6-95-9.2-23.8-20.4-41-38.2-58.8-18-18-35-29-58.8-38.4-18-7-45.2-15.4-95-17.6-54-2.4-70.2-3-206.8-3s-153 0.6-206.8 3c-50 2.2-77 10.6-95 17.6-23.8 9.2-41 20.4-58.8 38.2-18 18-29 35-38.4 58.8-7 18-15.4 45.2-17.6 95-2.4 54-3 70.2-3 206.8s0.6 153 3 206.8c2.2 50 10.6 77 17.6 95 9.2 23.8 20.4 41 38.2 58.8 18 18 35 29 58.8 38.4 18 7 45.2 15.4 95 17.6 53.8 2.4 70 3 206.8 3zM512 960c-139 0-156.4-0.6-211-3-54.4-2.4-91.8-11.2-124.2-23.8-33.8-13.2-62.4-30.6-90.8-59.2-28.6-28.4-46-57-59.2-90.6-12.6-32.6-21.4-69.8-23.8-124.2-2.4-54.8-3-72.2-3-211.2s0.6-156.4 3-211c2.4-54.4 11.2-91.8 23.8-124.2 13.2-33.8 30.6-62.4 59.2-90.8 28.4-28.4 57-46 90.6-59 32.6-12.6 69.8-21.4 124.2-23.8 54.6-2.4 72-3 211-3s156.4 0.6 211 3c54.4 2.4 91.8 11.2 124.2 23.8 33.6 13 62.2 30.6 90.6 59s46 57 59 90.6c12.6 32.6 21.4 69.8 23.8 124.2 2.4 54.6 3 72 3 211s-0.6 156.4-3 211c-2.4 54.4-11.2 91.8-23.8 124.2-12.6 34-30 62.6-58.6 91-28.4 28.4-57 46-90.6 59-32.6 12.6-69.8 21.4-124.2 23.8-54.8 2.6-72.2 3.2-211.2 3.2v0zM512 711c-145.2 0-263-117.8-263-263s117.8-263 263-263 263 117.8 263 263c0 145.2-117.8 263-263 263zM512 277.4c-94.2 0-170.6 76.4-170.6 170.6s76.4 170.6 170.6 170.6c94.2 0 170.6-76.4 170.6-170.6s-76.4-170.6-170.6-170.6zM846.8 721.4c0-33.91-27.49-61.4-61.4-61.4s-61.4 27.49-61.4 61.4c0 33.91 27.49 61.4 61.4 61.4s61.4-27.49 61.4-61.4z" />
<glyph unicode="&#xea93;" glyph-name="whatsapp" d="M873 811.2c-95.8 96-223.2 148.8-359 148.8-279.6 0-507.2-227.6-507.2-507.4 0-89.4 23.4-176.8 67.8-253.6l-72-263 269 70.6c74.2-40.4 157.6-61.8 242.4-61.8h0.2c0 0 0 0 0 0 279.6 0 507.4 227.6 507.4 507.4 0 135.6-52.8 263-148.6 359zM514.2 30.4v0c-75.8 0-150 20.4-214.8 58.8l-15.4 9.2-159.6-41.8 42.6 155.6-10 16c-42.4 67-64.6 144.6-64.6 224.4 0 232.6 189.2 421.8 422 421.8 112.6 0 218.6-44 298.2-123.6 79.6-79.8 123.4-185.6 123.4-298.4-0.2-232.8-189.4-422-421.8-422zM745.4 346.4c-12.6 6.4-75 37-86.6 41.2s-20 6.4-28.6-6.4c-8.4-12.6-32.8-41.2-40.2-49.8-7.4-8.4-14.8-9.6-27.4-3.2s-53.6 19.8-102 63c-37.6 33.6-63.2 75.2-70.6 87.8s-0.8 19.6 5.6 25.8c5.8 5.6 12.6 14.8 19 22.2s8.4 12.6 12.6 21.2c4.2 8.4 2.2 15.8-1 22.2s-28.6 68.8-39 94.2c-10.2 24.8-20.8 21.4-28.6 21.8-7.4 0.4-15.8 0.4-24.2 0.4s-22.2-3.2-33.8-15.8c-11.6-12.6-44.4-43.4-44.4-105.8s45.4-122.6 51.8-131.2c6.4-8.4 89.4-136.6 216.6-191.4 30.2-13 53.8-20.8 72.2-26.8 30.4-9.6 58-8.2 79.8-5 24.4 3.6 75 30.6 85.6 60.2s10.6 55 7.4 60.2c-3 5.6-11.4 8.8-24.2 15.2z" />
<glyph unicode="&#xea95;" glyph-name="telegram" d="M512 960c-282.8 0-512-229.2-512-512s229.2-512 512-512 512 229.2 512 512-229.2 512-512 512zM763.6 609l-84-395.8c-5.8-28.2-22.8-34.8-46.4-21.8l-128 94.6-61.4-59.8c-7.2-7-12.8-12.8-25.6-12.8-16.6 0-13.8 6.2-19.4 22l-43.6 143.2-126.6 39.4c-27.4 8.4-27.6 27.2 6.2 40.6l493.2 190.4c22.4 10.2 44.2-5.4 35.6-40z" />
<glyph unicode="&#xea96;" glyph-name="twitter" d="M1024 733.6c-37.6-16.8-78.2-28-120.6-33 43.4 26 76.6 67.2 92.4 116.2-40.6-24-85.6-41.6-133.4-51-38.4 40.8-93 66.2-153.4 66.2-116 0-210-94-210-210 0-16.4 1.8-32.4 5.4-47.8-174.6 8.8-329.4 92.4-433 219.6-18-31-28.4-67.2-28.4-105.6 0-72.8 37-137.2 93.4-174.8-34.4 1-66.8 10.6-95.2 26.2 0-0.8 0-1.8 0-2.6 0-101.8 72.4-186.8 168.6-206-17.6-4.8-36.2-7.4-55.4-7.4-13.6 0-26.6 1.4-39.6 3.8 26.8-83.4 104.4-144.2 196.2-146-72-56.4-162.4-90-261-90-17 0-33.6 1-50.2 3 93.2-59.8 203.6-94.4 322.2-94.4 386.4 0 597.8 320.2 597.8 597.8 0 9.2-0.2 18.2-0.6 27.2 41 29.4 76.6 66.4 104.8 108.6z" />
<glyph unicode="&#xea98;" glyph-name="vk" d="M928 960h-832c-52.8 0-96-43.2-96-96v-832c0-52.8 43.2-96 96-96h832c52.8 0 96 43.2 96 96v832c0 52.8-43.2 96-96 96zM829.4 243.2l-93.6-1.4c0 0-20.2-4-46.6 14.2-35 24-68 86.6-93.8 78.4-26-8.2-25.2-64.4-25.2-64.4s0.2-12-5.8-18.4c-6.4-7-19.2-8.4-19.2-8.4h-41.8c0 0-92.4-5.6-173.8 79.2-88.8 92.4-167.2 275.8-167.2 275.8s-4.6 12 0.4 17.8c5.6 6.6 20.6 7 20.6 7l100.2 0.6c0 0 9.4-1.6 16.2-6.6 5.6-4 8.6-11.8 8.6-11.8s16.2-41 37.6-78c41.8-72.2 61.4-88 75.6-80.4 20.6 11.2 14.4 102.2 14.4 102.2s0.4 33-10.4 47.6c-8.4 11.4-24.2 14.8-31 15.6-5.6 0.8 3.6 13.8 15.6 19.8 18 8.8 49.8 9.4 87.4 9 29.2-0.2 37.8-2.2 49.2-4.8 34.6-8.4 22.8-40.6 22.8-117.8 0-24.8-4.4-59.6 13.4-71 7.6-5 26.4-0.8 73.4 79 22.2 37.8 39 82.2 39 82.2s3.6 8 9.2 11.4c5.8 3.4 13.6 2.4 13.6 2.4l105.4 0.6c0 0 31.6 3.8 36.8-10.6 5.4-15-11.8-50-54.8-107.4-70.6-94.2-78.6-85.4-19.8-139.8 56-52 67.6-77.4 69.6-80.6 22.8-38.4-26-41.4-26-41.4z" />
<glyph unicode="&#xea9b;" glyph-name="rss" d="M136.294 209.070c-75.196 0-136.292-61.334-136.292-136.076 0-75.154 61.1-135.802 136.292-135.802 75.466 0 136.494 60.648 136.494 135.802-0.002 74.742-61.024 136.076-136.494 136.076zM0.156 612.070v-196.258c127.784 0 247.958-49.972 338.458-140.512 90.384-90.318 140.282-211.036 140.282-339.3h197.122c-0.002 372.82-303.282 676.070-675.862 676.070zM0.388 960v-196.356c455.782 0 826.756-371.334 826.756-827.644h196.856c0 564.47-459.254 1024-1023.612 1024z" />
<glyph unicode="&#xea9c;" glyph-name="rss2" d="M928 960h-832c-52.8 0-96-43.2-96-96v-832c0-52.8 43.2-96 96-96h832c52.8 0 96 43.2 96 96v832c0 52.8-43.2 96-96 96zM279 128.8c-48 0-87 38.6-87 86.6 0 47.6 39 86.8 87 86.8 48.2 0 87-39.2 87-86.8 0-48-39-86.6-87-86.6zM497.4 128c0 81.8-31.8 158.8-89.4 216.4-57.8 57.8-134.4 89.6-216 89.6v125.2c237.6 0 431.2-193.4 431.2-431.2h-125.8zM719.6 128c0 291-236.6 528-527.4 528v125.2c360 0 653-293.2 653-653.2h-125.6z" />
<glyph unicode="&#xea9d;" glyph-name="youtube" d="M1013.8 652.8c0 0-10 70.6-40.8 101.6-39 40.8-82.6 41-102.6 43.4-143.2 10.4-358.2 10.4-358.2 10.4h-0.4c0 0-215 0-358.2-10.4-20-2.4-63.6-2.6-102.6-43.4-30.8-31-40.6-101.6-40.6-101.6s-10.2-82.8-10.2-165.8v-77.6c0-82.8 10.2-165.8 10.2-165.8s10-70.6 40.6-101.6c39-40.8 90.2-39.4 113-43.8 82-7.8 348.2-10.2 348.2-10.2s215.2 0.4 358.4 10.6c20 2.4 63.6 2.6 102.6 43.4 30.8 31 40.8 101.6 40.8 101.6s10.2 82.8 10.2 165.8v77.6c-0.2 82.8-10.4 165.8-10.4 165.8zM406.2 315.2v287.8l276.6-144.4-276.6-143.4z" />
<glyph unicode="&#xeaa0;" glyph-name="vimeo" d="M1023.6 686c-4.6-99.6-74.2-236.2-208.8-409.4-139.2-180.8-257-271.4-353.4-271.4-59.6 0-110.2 55-151.4 165.2-27.6 101-55 202-82.6 303-30.6 110.2-63.4 165.2-98.6 165.2-7.6 0-34.4-16.2-80.4-48.2l-48.2 62c50.6 44.4 100.4 88.8 149.4 133.2 67.4 58.2 118 88.8 151.8 92 79.6 7.6 128.8-46.8 147.2-163.4 19.8-125.8 33.6-204 41.4-234.6 23-104.4 48.2-156.6 75.8-156.6 21.4 0 53.6 33.8 96.6 101.6 42.8 67.6 65.8 119.2 69 154.6 6.2 58.4-16.8 87.8-69 87.8-24.6 0-49.8-5.6-75.8-16.8 50.4 164.8 146.4 244.8 288.4 240.2 105-2.8 154.6-71 148.6-204.4z" />
<glyph unicode="&#xeaa1;" glyph-name="vimeo2" d="M928 960h-832c-52.8 0-96-43.2-96-96v-832c0-52.8 43.2-96 96-96h832c52.8 0 96 43.2 96 96v832c0 52.8-43.2 96-96 96zM861.6 620c-3.2-72-53.6-170.6-151-295.8-100.6-130.8-185.8-196.2-255.4-196.2-43.2 0-79.6 39.8-109.4 119.4-20 73-39.8 146-59.8 219-22 79.6-45.8 119.4-71.2 119.4-5.6 0-25-11.6-58-34.8l-34.8 44.8c36.6 32 72.6 64.2 108 96.2 48.8 42 85.2 64.2 109.6 66.4 57.6 5.6 93-33.8 106.4-118 14.4-91 24.4-147.4 30-169.6 16.6-75.4 34.8-113 54.8-113 15.4 0 38.8 24.4 69.8 73.4s47.6 86.2 49.8 111.8c4.4 42.2-12.2 63.4-49.8 63.4-17.8 0-36-4-54.8-12.2 36.4 119 105.8 177 208.4 173.6 76-2.2 111.8-51.4 107.4-147.8z" />
<glyph unicode="&#xeab7;" glyph-name="blogger" d="M957.796 576h-57.406c-35.166 0-65.988 29.742-68.39 64v0c0.004 182.668-147.258 320-331.19 320h-167.824c-183.812 0-332.856-148-332.986-330.666v-362.798c0-182.654 149.174-330.536 332.984-330.536h358.42c183.948 0 332.596 147.882 332.596 330.536v234.382c0 36.502-29.44 75.082-66.204 75.082zM320 704h192c35.2 0 64-28.8 64-64s-28.8-64-64-64h-192c-35.2 0-64 28.8-64 64s28.8 64 64 64zM704 192h-384c-35.2 0-64 28.8-64 64s28.8 64 64 64h384c35.2 0 64-28.8 64-64s-28.8-64-64-64z" />
<glyph unicode="&#xeab8;" glyph-name="blogger2" d="M928 960h-832c-52.8 0-96-43.2-96-96v-832c0-52.8 43.2-96 96-96h832c52.8 0 96 43.2 96 96v832c0 52.8-43.2 96-96 96zM896 312c0-137-111.4-248-249.4-248h-268.8c-138 0-249.8 111-249.8 248v272c0 137 111.8 248 249.8 248h125.8c138 0 248.4-103 248.4-240 1.8-25.6 25-48 51.2-48h43c27.6 0 49.6-29 49.6-56.4v-175.6zM704 320c0-35.2-28.8-64-64-64h-256c-35.2 0-64 28.8-64 64v0c0 35.2 28.8 64 64 64h256c35.2 0 64-28.8 64-64v0zM576 576c0-35.2-28.8-64-64-64h-128c-35.2 0-64 28.8-64 64v0c0 35.2 28.8 64 64 64h128c35.2 0 64-28.8 64-64v0z" />
<glyph unicode="&#xeab9;" glyph-name="tumblr" d="M576.032 512l-0.002-234.184c0-59.418-0.77-93.656 5.53-110.5 6.25-16.754 21.918-34.146 38.99-44.202 22.684-13.588 48.542-20.376 77.708-20.376 51.854 0 82.478 6.848 133.742 40.54v-153.944c-43.7-20.552-81.866-32.594-117.324-40.922-35.5-8.242-73.86-12.406-115.064-12.406-46.828 0-74.456 5.886-110.41 17.656-35.958 11.868-66.66 28.806-92.020 50.54-25.45 21.922-43.022 45.208-52.848 69.832-9.826 24.636-14.716 60.414-14.716 107.244v359.1h-137.426v145.006c40.208 13.042 85.164 31.788 113.78 56.152 28.754 24.45 51.766 53.706 69.106 87.944 17.392 34.146 29.348 77.712 35.872 130.516h165.084l-0.002-255.996h255.968v-192h-255.968z" />
<glyph unicode="&#xeaba;" glyph-name="tumblr2" d="M928 960h-832c-52.8 0-96-43.2-96-96v-832c0-52.8 43.2-96 96-96h832c52.8 0 96 43.2 96 96v832c0 52.8-43.2 96-96 96zM731.8 135.4c-30.2-14.2-57.6-24.2-82-30-24.4-5.6-51-8.6-79.4-8.6-32.4 0-51.4 4-76.2 12.2s-46 19.8-63.6 34.8c-17.6 15.2-29.6 31.2-36.4 48.2s-10.2 41.6-10.2 74v247.8h-96v100c27.8 9 60 22 79.6 38.8 19.8 16.8 35.8 37 47.6 60.6 12 23.6 20.2 53.6 24.8 90h100.4v-163.2h163.6v-126.2h-163.4v-181.2c0-41-0.6-64.6 3.8-76.2s15.2-23.6 27-30.4c15.6-9.4 33.6-14 53.6-14 35.8 0 71.4 11.6 106.8 34.8v-111.4z" />
<glyph unicode="&#xeac5;" glyph-name="skype" d="M425.6 922.6c-1.6 1-3.4 1.8-5 2.6-1.8-0.4-3.4-0.6-5.2-1l10.2-1.6zM36.8 539c-0.4-1.8-0.6-3.6-0.8-5.2 1-1.6 1.6-3.2 2.6-4.8l-1.8 10zM986.8 357.4c0.4 1.8 0.6 3.6 1 5.4-1 1.6-1.6 3.2-2.6 4.8l1.6-10.2zM592-23c1.6-1 3.4-1.8 5-2.6 1.8 0.4 3.6 0.6 5.4 0.8l-10.4 1.8zM987.8 362.8c-0.4-1.8-0.6-3.6-1-5.4l-1.8 10.4c1-1.8 1.8-3.4 2.8-5 5.2 28.8 8 58.2 8 87.6 0 65.2-12.8 128.6-38 188.2-24.4 57.6-59.2 109.4-103.6 153.8s-96.2 79.2-153.6 103.6c-59.6 25.2-123 38-188.2 38-30.8 0-61.6-2.8-91.6-8.6 0 0-0.2 0-0.2 0 1.6-0.8 3.4-1.6 5-2.6l-10.2 1.6c1.8 0.4 3.4 0.6 5.2 1-41.2 21.8-87.4 33.6-134.2 33.6-76.4 0-148.4-29.8-202.4-83.8s-83.8-126-83.8-202.4c0-48.6 12.6-96.6 36-138.8 0.4 1.8 0.6 3.6 0.8 5.2l1.8-10.2c-1 1.6-1.8 3.2-2.6 4.8-4.8-27.4-7.2-55.4-7.2-83.4 0-65.2 12.8-128.6 38-188.2 24.4-57.6 59.2-109.2 103.6-153.6s96.2-79.2 153.8-103.6c59.6-25.2 123-38 188.2-38 28.4 0 56.8 2.6 84.6 7.6-1.6 1-3.2 1.8-5 2.6l10.4-1.8c-1.8-0.4-3.6-0.6-5.4-0.8 42.8-24.2 91.4-37.2 140.8-37.2 76.4 0 148.4 29.8 202.4 83.8s83.8 126 83.8 202.4c-0.2 48.6-12.8 96.6-36.4 139.2zM514.2 154.2c-171.8 0-248.6 84.4-248.6 147.8 0 32.4 24 55.2 57 55.2 73.6 0 54.4-105.6 191.6-105.6 70.2 0 109 38.2 109 77.2 0 23.4-11.6 49.4-57.8 60.8l-152.8 38.2c-123 30.8-145.4 97.4-145.4 160 0 129.8 122.2 178.6 237 178.6 105.8 0 230.4-58.4 230.4-136.4 0-33.4-29-52.8-62-52.8-62.8 0-51.2 86.8-177.6 86.8-62.8 0-97.4-28.4-97.4-69s49.6-53.6 92.6-63.4l113.2-25.2c123.8-27.6 155.2-100 155.2-168 0-105.4-81-184.2-244.4-184.2z" />
<glyph unicode="&#xeac9;" glyph-name="linkedin" d="M928 960h-832c-52.8 0-96-43.2-96-96v-832c0-52.8 43.2-96 96-96h832c52.8 0 96 43.2 96 96v832c0 52.8-43.2 96-96 96zM384 128h-128v448h128v-448zM320 640c-35.4 0-64 28.6-64 64s28.6 64 64 64c35.4 0 64-28.6 64-64s-28.6-64-64-64zM832 128h-128v256c0 35.4-28.6 64-64 64s-64-28.6-64-64v-256h-128v448h128v-79.4c26.4 36.2 66.8 79.4 112 79.4 79.6 0 144-71.6 144-160v-288z" />
<glyph unicode="&#xeaca;" glyph-name="linkedin2" d="M384 576h177.106v-90.782h2.532c24.64 44.194 84.958 90.782 174.842 90.782 186.946 0 221.52-116.376 221.52-267.734v-308.266h-184.61v273.278c0 65.184-1.334 149.026-96.028 149.026-96.148 0-110.82-70.986-110.82-144.292v-278.012h-184.542v576zM64 576h192v-576h-192v576zM256 736c0-53.019-42.981-96-96-96s-96 42.981-96 96c0 53.019 42.981 96 96 96s96-42.981 96-96z" />
<glyph unicode="&#xead1;" glyph-name="pinterest" d="M512 891.6c-245 0-443.6-198.6-443.6-443.6 0-188 117-348.4 282-413-3.8 35-7.4 89 1.6 127.2 8 34.6 52 220.4 52 220.4s-13.2 26.6-13.2 65.8c0 61.6 35.8 107.8 80.2 107.8 37.8 0 56.2-28.4 56.2-62.4 0-38-24.2-95-36.8-147.6-10.6-44.2 22-80.2 65.6-80.2 78.8 0 139.4 83.2 139.4 203.2 0 106.2-76.4 180.4-185.2 180.4-126.2 0-200.2-94.6-200.2-192.6 0-38.2 14.6-79 33-101.2 3.6-4.4 4.2-8.2 3-12.8-3.4-14-10.8-44.2-12.4-50.4-2-8.2-6.4-9.8-14.8-6-55.4 25.8-90 106.8-90 171.8 0 140 101.6 268.4 293 268.4 153.8 0 273.4-109.6 273.4-256.2 0-152.8-96.4-276-230.2-276-45 0-87.2 23.4-101.6 51 0 0-22.2-84.6-27.6-105.4-10-38.6-37-86.8-55.2-116.2 41.6-12.8 85.6-19.8 131.4-19.8 245 0 443.6 198.6 443.6 443.6 0 245.2-198.6 443.8-443.6 443.8z" />
<glyph unicode="&#xead2;" glyph-name="pinterest2" d="M512 960c-282.4 0-512-229.6-512-512s229.6-512 512-512 512 229.6 512 512-229.6 512-512 512zM512 4.4c-45.8 0-89.8 7-131.4 19.8 18 29.4 45.2 77.8 55.2 116.2 5.4 20.8 27.6 105.4 27.6 105.4 14.4-27.6 56.8-51 101.6-51 133.8 0 230.2 123 230.2 276 0 146.6-119.6 256.2-273.4 256.2-191.4 0-293-128.6-293-268.4 0-65 34.6-146 90-171.8 8.4-4 12.8-2.2 14.8 6 1.4 6.2 9 36.2 12.4 50.4 1 4.4 0.6 8.4-3 12.8-18.4 22.2-33 63.2-33 101.2 0 97.8 74 192.6 200.2 192.6 109 0 185.2-74.2 185.2-180.4 0-120-60.6-203.2-139.4-203.2-43.6 0-76.2 36-65.6 80.2 12.6 52.8 36.8 109.6 36.8 147.6 0 34-18.2 62.4-56.2 62.4-44.6 0-80.2-46-80.2-107.8 0-39.2 13.2-65.8 13.2-65.8s-44-185.8-52-220.4c-9-38.4-5.4-92.2-1.6-127.2-165 64.4-282 224.8-282 412.8 0 245 198.6 443.6 443.6 443.6s443.6-198.6 443.6-443.6c0-245-198.6-443.6-443.6-443.6z" />
<glyph unicode="&#xead6;" glyph-name="foursquare" d="M851.564 869.91c-12.060 16.404-31.204 26.090-51.564 26.090h-608c-35.346 0-64-28.654-64-64v-768c0-25.884 15.592-49.222 39.508-59.128 7.918-3.28 16.234-4.874 24.478-4.874 16.656 0 33.026 6.504 45.268 18.748l237.256 237.254h165.49c27.992 0 52.736 18.192 61.086 44.91l160 512c6.074 19.432 2.538 40.596-9.522 57zM672.948 640h-224.948c-35.346 0-64-28.654-64-64s28.654-64 64-64h184.948l-40-128h-144.948c-16.974 0-33.252-6.742-45.254-18.746l-146.746-146.744v549.49h456.948l-40-128z" />
<glyph unicode="&#xeae4;" glyph-name="logo_inforcom" d="M804.723 637.243h-96.967l-174.922-303.419c-77.685-163.62-195.301-203.401-262.48-203.401-31.726 0.541-31.726 0.436-31.726 0.436l222.022 386.829c34.071 73.536 81.772 111.634 138.732 119.54h-500.116c-54.781 0-99.206-44.666-99.206-99.747v-418.045c0-55.096 44.41-99.747 99.206-99.747h705.472c54.781 0 99.206 44.666 99.206 99.747v418.045c0 55.096-44.41 99.747-99.206 99.747zM827.531 773.405h-84.477c-25.624 0-59.048-18.335-73.838-41.69l-57.801-91.316h86.221c25.624 0 58.312 20.304 73.116 43.674l56.794 89.331zM662.199 611.89h-63.767c-19.342 0-44.576-14.308-55.743-31.951l-43.629-69.404h65.075c19.342 0 44.019 15.795 55.186 33.44l42.877 67.9zM704.716 835.16h-63.767c-19.342 0-44.576-14.308-55.743-31.951l-43.629-69.404h65.075c19.342 0 44.019 15.795 55.186 33.44l42.877 67.9zM1021.224 876.324h-63.767c-19.342 0-44.576-14.308-55.743-31.951l-43.629-69.404h65.075c19.342 0 44.019 15.795 55.186 33.44l42.877 67.9z" />
<glyph unicode="&#xeae5;" glyph-name="html-five2" d="M60.538 960l82.144-921.63 368.756-102.37 369.724 102.524 82.3 921.476h-902.924zM810.762 97.176l-297.226-82.376v-0.466l-0.776 0.234-0.782-0.234v0.466l-297.222 82.376-70.242 787.486h736.496l-70.248-787.486zM650.754 429.796l-13.070-146.552-126.21-34.070-125.862 33.916-8.050 90.234h-113.49l15.83-177.512 232.076-64.176 231.342 64.176 31.040 347.012h-411.966l-10.302 115.748h432.534l10.112 113.026h-566.218l30.498-341.802z" />
<glyph unicode="&#xeae6;" glyph-name="css3" d="M152.388 911.478l-34.36-171.926h699.748l-21.884-111.054h-700.188l-33.892-171.898h699.684l-39.018-196.064-282.012-93.422-244.4 93.422 16.728 85.042h-171.898l-40.896-206.352 404.226-154.704 466.006 154.704 153.768 772.252z" />
</font>
</defs>
</svg>
